M48
; DRILL file {KiCad (6.0.11)} date Fri Apr 28 13:02:29 2023
; FORMAT={-:-/ absolute / inch / decimal}
; #@! TF.CreationDate,2023-04-28T13:02:29+02:00
; #@! TF.GenerationSoftware,Kicad,Pcbnew,(6.0.11)
; #@! TF.FileFunction,Plated,1,2,PTH
FMAT,2
INCH
; #@! TA.AperFunction,Plated,PTH,ViaDrill
T1C0.0118
; #@! TA.AperFunction,Plated,PTH,ViaDrill
T2C0.0157
; #@! TA.AperFunction,Plated,PTH,ComponentDrill
T3C0.0197
; #@! TA.AperFunction,Plated,PTH,ComponentDrill
T4C0.0236
%
G90
G05
T1
X3.8529Y-2.6418
X4.1314Y-2.6359
X4.1344Y-2.1042
X4.1678Y-2.1451
X4.1904Y-2.312
X4.2538Y-2.2615
X4.2577Y-2.5859
X4.3064Y-2.5599
X4.3374Y-2.0436
X4.3904Y-2.0447
X4.4201Y-2.6344
X4.4817Y-2.6574
X4.4883Y-2.6873
X4.6124Y-2.104
X4.8207Y-2.5715
X4.8423Y-2.6303
X5.0125Y-2.0343
T2
X3.994Y-2.606
X4.178Y-2.616
X4.253Y-2.2929
X4.2619Y-2.5082
X4.262Y-2.074
X4.55Y-2.0
X4.55Y-2.16
X4.605Y-2.365
X4.64Y-2.335
X4.652Y-2.7122
X4.66Y-2.572
X4.695Y-2.01
X4.72Y-2.576
X4.73Y-2.42
X4.81Y-2.684
X4.835Y-2.39
X4.8985Y-2.259
X4.91Y-2.47
X4.9277Y-2.4175
T3
G00X4.9896Y-2.1449
M15
G01X5.0369Y-2.1449
M16
G05
G00X4.9896Y-2.4851
M15
G01X5.0369Y-2.4851
M16
G05
T4
G00X5.166Y-2.1449
M15
G01X5.1896Y-2.1449
M16
G05
G00X5.166Y-2.4851
M15
G01X5.1896Y-2.4851
M16
G05
T0
M30
