G04 #@! TF.GenerationSoftware,KiCad,Pcbnew,(6.0.11)*
G04 #@! TF.CreationDate,2023-04-28T13:02:25+02:00*
G04 #@! TF.ProjectId,cyberticket,63796265-7274-4696-936b-65742e6b6963,rev?*
G04 #@! TF.SameCoordinates,Original*
G04 #@! TF.FileFunction,Copper,L2,Bot*
G04 #@! TF.FilePolarity,Positive*
%FSLAX46Y46*%
G04 Gerber Fmt 4.6, Leading zero omitted, Abs format (unit mm)*
G04 Created by KiCad (PCBNEW (6.0.11)) date 2023-04-28 13:02:25*
%MOMM*%
%LPD*%
G01*
G04 APERTURE LIST*
G04 #@! TA.AperFunction,ComponentPad*
%ADD10O,1.600000X1.000000*%
G04 #@! TD*
G04 #@! TA.AperFunction,ComponentPad*
%ADD11O,2.100000X0.900000*%
G04 #@! TD*
G04 #@! TA.AperFunction,SMDPad,CuDef*
%ADD12R,3.000000X0.350000*%
G04 #@! TD*
G04 #@! TA.AperFunction,ViaPad*
%ADD13C,0.600000*%
G04 #@! TD*
G04 #@! TA.AperFunction,ViaPad*
%ADD14C,0.400000*%
G04 #@! TD*
G04 #@! TA.AperFunction,Conductor*
%ADD15C,0.152400*%
G04 #@! TD*
G04 #@! TA.AperFunction,Conductor*
%ADD16C,0.250000*%
G04 #@! TD*
G04 APERTURE END LIST*
D10*
X131516000Y-54481000D03*
X131516000Y-63121000D03*
D11*
X127336000Y-63121000D03*
X127336000Y-54481000D03*
D12*
X109982000Y-55419000D03*
X109982000Y-56119000D03*
X109982000Y-56819000D03*
X109982000Y-57519000D03*
X109982000Y-58219000D03*
X109982000Y-58919000D03*
X109982000Y-59619000D03*
X109982000Y-60319000D03*
X109982000Y-61019000D03*
X109982000Y-61719000D03*
X109982000Y-62419000D03*
X109982000Y-63119000D03*
D13*
X119253000Y-51054000D03*
X118364000Y-65328800D03*
X118160800Y-68890100D03*
X115570000Y-54864000D03*
X108254800Y-52679600D03*
X122809000Y-60706000D03*
X124714000Y-62738000D03*
X101447600Y-66192400D03*
X122174000Y-68173600D03*
X116967000Y-60071000D03*
X115570000Y-50800000D03*
X119888000Y-65430400D03*
X106121200Y-66446400D03*
X120142000Y-61468000D03*
X108253100Y-63709100D03*
X108026200Y-58238900D03*
X117856000Y-59309000D03*
D14*
X113834800Y-67498900D03*
X97863400Y-67101500D03*
X109383100Y-65022200D03*
X117154600Y-53440700D03*
D13*
X125164200Y-61405100D03*
X124421600Y-57378900D03*
D14*
X104936700Y-66951400D03*
X108046700Y-57441400D03*
X111516400Y-51935200D03*
X110171000Y-51907100D03*
X122445500Y-65316800D03*
X112270300Y-66913900D03*
X114003500Y-68256400D03*
X122994200Y-66810500D03*
X106436400Y-58726000D03*
X105861700Y-54485900D03*
X105014500Y-53447900D03*
X108145500Y-65683100D03*
X127316500Y-51671500D03*
D15*
X108253100Y-58219000D02*
X108253100Y-58238900D01*
X111758500Y-56166600D02*
X111758500Y-58171400D01*
X111710900Y-56119000D02*
X111758500Y-56166600D01*
X119131300Y-68890100D02*
X118160800Y-68890100D01*
X109982000Y-63119000D02*
X108253100Y-63119000D01*
X108026200Y-58238900D02*
X108253100Y-58238900D01*
X109982000Y-58919000D02*
X108253100Y-58919000D01*
X109982000Y-56119000D02*
X111710900Y-56119000D01*
X119176800Y-68935600D02*
X119131300Y-68890100D01*
X109982000Y-58219000D02*
X108253100Y-58219000D01*
X108253100Y-63119000D02*
X108253100Y-63709100D01*
X119938800Y-68173600D02*
X119176800Y-68935600D01*
X122174000Y-68173600D02*
X119938800Y-68173600D01*
X109982000Y-58219000D02*
X111710900Y-58219000D01*
X111758500Y-58171400D02*
X111710900Y-58219000D01*
X109982000Y-55419000D02*
X109982000Y-56119000D01*
X108253100Y-58238900D02*
X108253100Y-58919000D01*
D16*
X97863400Y-67101500D02*
X98260800Y-67498900D01*
X98260800Y-67498900D02*
X113834800Y-67498900D01*
X117154600Y-58088600D02*
X110221100Y-65022100D01*
X117154600Y-53440700D02*
X117154600Y-58088600D01*
X109383100Y-65022100D02*
X109383100Y-65022200D01*
X110221100Y-65022100D02*
X109383100Y-65022100D01*
D15*
X124421600Y-60662500D02*
X125164200Y-61405100D01*
X124421600Y-57378900D02*
X124421600Y-60662500D01*
D16*
X105275600Y-52914300D02*
X104777400Y-52914300D01*
X104777400Y-52914300D02*
X104489100Y-53202600D01*
X109982000Y-56819000D02*
X108156700Y-56819000D01*
X108156700Y-56819000D02*
X108156700Y-55795400D01*
X104489100Y-53202600D02*
X104489100Y-66503800D01*
X104489100Y-66503800D02*
X104936700Y-66951400D01*
X108156700Y-55795400D02*
X105275600Y-52914300D01*
X108079100Y-57441400D02*
X108046700Y-57441400D01*
X108156700Y-57519000D02*
X108079100Y-57441400D01*
X109982000Y-57519000D02*
X108156700Y-57519000D01*
X111807300Y-61719000D02*
X112619900Y-60906400D01*
X112619900Y-60906400D02*
X112619900Y-53038700D01*
X112619900Y-53038700D02*
X111516400Y-51935200D01*
X109982000Y-61719000D02*
X111807300Y-61719000D01*
X112164600Y-53900700D02*
X110171000Y-51907100D01*
X109982000Y-61019000D02*
X111807300Y-61019000D01*
X112164600Y-60661700D02*
X112164600Y-53900700D01*
X111807300Y-61019000D02*
X112164600Y-60661700D01*
X122445500Y-65316800D02*
X120848400Y-66913900D01*
X120848400Y-66913900D02*
X112270300Y-66913900D01*
X119478500Y-67363900D02*
X122440800Y-67363900D01*
X122440800Y-67363900D02*
X122994200Y-66810500D01*
X118586000Y-68256400D02*
X119478500Y-67363900D01*
X114003500Y-68256400D02*
X118586000Y-68256400D01*
X108029400Y-60319000D02*
X106436400Y-58726000D01*
X109982000Y-60319000D02*
X108029400Y-60319000D01*
X108156700Y-59619000D02*
X105861700Y-57324000D01*
X105861700Y-57324000D02*
X105861700Y-54485900D01*
X109982000Y-59619000D02*
X108156700Y-59619000D01*
X109982000Y-62419000D02*
X108156700Y-62419000D01*
X105014500Y-59276800D02*
X105014500Y-53447900D01*
X108156700Y-62419000D02*
X105014500Y-59276800D01*
X113304900Y-65683100D02*
X127316500Y-51671500D01*
X108145500Y-65683100D02*
X113304900Y-65683100D01*
G04 #@! TA.AperFunction,Conductor*
G36*
X132050018Y-50040000D02*
G01*
X132064852Y-50042310D01*
X132064855Y-50042310D01*
X132073724Y-50043691D01*
X132083659Y-50042392D01*
X132084746Y-50042250D01*
X132113431Y-50041793D01*
X132186741Y-50049013D01*
X132216212Y-50051916D01*
X132240432Y-50056733D01*
X132359546Y-50092866D01*
X132382355Y-50102315D01*
X132492124Y-50160987D01*
X132512655Y-50174705D01*
X132608876Y-50253671D01*
X132626329Y-50271124D01*
X132705295Y-50367345D01*
X132719013Y-50387876D01*
X132777685Y-50497645D01*
X132787134Y-50520454D01*
X132823267Y-50639568D01*
X132828084Y-50663789D01*
X132837541Y-50759809D01*
X132837091Y-50775868D01*
X132837800Y-50775877D01*
X132837690Y-50784853D01*
X132836309Y-50793724D01*
X132837473Y-50802626D01*
X132837473Y-50802628D01*
X132840436Y-50825283D01*
X132841500Y-50841621D01*
X132841500Y-53789928D01*
X132821498Y-53858049D01*
X132767842Y-53904542D01*
X132697568Y-53914646D01*
X132632988Y-53885152D01*
X132617303Y-53868880D01*
X132543532Y-53777127D01*
X132534954Y-53768368D01*
X132392961Y-53649222D01*
X132382841Y-53642292D01*
X132220415Y-53552998D01*
X132209142Y-53548166D01*
X132032462Y-53492120D01*
X132020468Y-53489570D01*
X131876239Y-53473393D01*
X131869215Y-53473000D01*
X131788115Y-53473000D01*
X131772876Y-53477475D01*
X131771671Y-53478865D01*
X131770000Y-53486548D01*
X131770000Y-55470885D01*
X131774475Y-55486124D01*
X131775865Y-55487329D01*
X131783548Y-55489000D01*
X131862657Y-55489000D01*
X131868805Y-55488699D01*
X132006603Y-55475188D01*
X132018638Y-55472805D01*
X132196076Y-55419233D01*
X132207416Y-55414559D01*
X132371077Y-55327540D01*
X132381294Y-55320751D01*
X132524933Y-55203603D01*
X132533632Y-55194963D01*
X132618415Y-55092479D01*
X132677249Y-55052741D01*
X132748227Y-55051119D01*
X132808815Y-55088129D01*
X132839775Y-55152019D01*
X132841500Y-55172795D01*
X132841500Y-62429928D01*
X132821498Y-62498049D01*
X132767842Y-62544542D01*
X132697568Y-62554646D01*
X132632988Y-62525152D01*
X132617303Y-62508880D01*
X132543532Y-62417127D01*
X132534954Y-62408368D01*
X132392961Y-62289222D01*
X132382841Y-62282292D01*
X132220415Y-62192998D01*
X132209142Y-62188166D01*
X132032462Y-62132120D01*
X132020468Y-62129570D01*
X131876239Y-62113393D01*
X131869215Y-62113000D01*
X131788115Y-62113000D01*
X131772876Y-62117475D01*
X131771671Y-62118865D01*
X131770000Y-62126548D01*
X131770000Y-64110885D01*
X131774475Y-64126124D01*
X131775865Y-64127329D01*
X131783548Y-64129000D01*
X131862657Y-64129000D01*
X131868805Y-64128699D01*
X132006603Y-64115188D01*
X132018638Y-64112805D01*
X132196076Y-64059233D01*
X132207416Y-64054559D01*
X132371077Y-63967540D01*
X132381294Y-63960751D01*
X132524933Y-63843603D01*
X132533632Y-63834963D01*
X132618415Y-63732479D01*
X132677249Y-63692741D01*
X132748227Y-63691119D01*
X132808815Y-63728129D01*
X132839775Y-63792019D01*
X132841500Y-63812795D01*
X132841500Y-68530633D01*
X132840000Y-68550018D01*
X132836309Y-68573724D01*
X132837473Y-68582626D01*
X132837750Y-68584746D01*
X132838207Y-68613431D01*
X132831748Y-68679016D01*
X132828084Y-68716212D01*
X132823267Y-68740432D01*
X132787134Y-68859546D01*
X132777685Y-68882355D01*
X132719013Y-68992124D01*
X132705295Y-69012655D01*
X132626329Y-69108876D01*
X132608876Y-69126329D01*
X132512655Y-69205295D01*
X132492124Y-69219013D01*
X132382355Y-69277685D01*
X132359546Y-69287134D01*
X132240432Y-69323267D01*
X132216211Y-69328084D01*
X132120191Y-69337541D01*
X132104132Y-69337091D01*
X132104123Y-69337800D01*
X132095147Y-69337690D01*
X132086276Y-69336309D01*
X132077374Y-69337473D01*
X132077372Y-69337473D01*
X132064856Y-69339110D01*
X132054714Y-69340436D01*
X132038379Y-69341500D01*
X95376000Y-69341500D01*
X95307879Y-69321498D01*
X95261386Y-69267842D01*
X95250000Y-69215500D01*
X95250000Y-67094026D01*
X97149735Y-67094026D01*
X97168553Y-67264475D01*
X97227485Y-67425515D01*
X97323130Y-67567849D01*
X97449965Y-67683260D01*
X97456640Y-67686884D01*
X97593991Y-67761460D01*
X97593993Y-67761461D01*
X97600668Y-67765085D01*
X97608017Y-67767013D01*
X97608894Y-67767243D01*
X97609553Y-67767621D01*
X97615079Y-67769809D01*
X97614762Y-67770610D01*
X97666021Y-67800025D01*
X97757143Y-67891147D01*
X97764687Y-67899437D01*
X97768800Y-67905918D01*
X97774577Y-67911343D01*
X97818467Y-67952558D01*
X97821309Y-67955313D01*
X97841030Y-67975034D01*
X97844225Y-67977512D01*
X97853247Y-67985218D01*
X97885479Y-68015486D01*
X97892428Y-68019306D01*
X97903232Y-68025246D01*
X97919756Y-68036099D01*
X97935759Y-68048513D01*
X97976343Y-68066076D01*
X97986973Y-68071283D01*
X98025740Y-68092595D01*
X98033417Y-68094566D01*
X98033422Y-68094568D01*
X98045358Y-68097632D01*
X98064066Y-68104037D01*
X98082655Y-68112081D01*
X98090480Y-68113320D01*
X98090482Y-68113321D01*
X98126319Y-68118997D01*
X98137940Y-68121404D01*
X98173089Y-68130428D01*
X98180770Y-68132400D01*
X98201031Y-68132400D01*
X98220740Y-68133951D01*
X98240743Y-68137119D01*
X98248635Y-68136373D01*
X98253862Y-68135879D01*
X98284754Y-68132959D01*
X98296611Y-68132400D01*
X113164642Y-68132400D01*
X113232763Y-68152402D01*
X113279256Y-68206058D01*
X113288378Y-68249087D01*
X113289835Y-68248926D01*
X113308653Y-68419375D01*
X113367585Y-68580415D01*
X113371822Y-68586721D01*
X113371824Y-68586724D01*
X113380116Y-68599063D01*
X113463230Y-68722749D01*
X113468846Y-68727859D01*
X113573851Y-68823406D01*
X113590065Y-68838160D01*
X113740768Y-68919985D01*
X113906639Y-68963501D01*
X113994086Y-68964874D01*
X114070503Y-68966075D01*
X114070506Y-68966075D01*
X114078102Y-68966194D01*
X114085506Y-68964498D01*
X114085508Y-68964498D01*
X114148346Y-68950106D01*
X114245259Y-68927910D01*
X114294122Y-68903335D01*
X114350735Y-68889900D01*
X118507233Y-68889900D01*
X118518416Y-68890427D01*
X118525909Y-68892102D01*
X118533835Y-68891853D01*
X118533836Y-68891853D01*
X118593986Y-68889962D01*
X118597945Y-68889900D01*
X118625856Y-68889900D01*
X118629791Y-68889403D01*
X118629856Y-68889395D01*
X118641693Y-68888462D01*
X118673951Y-68887448D01*
X118677970Y-68887322D01*
X118685889Y-68887073D01*
X118705343Y-68881421D01*
X118724700Y-68877413D01*
X118736930Y-68875868D01*
X118736931Y-68875868D01*
X118744797Y-68874874D01*
X118752168Y-68871955D01*
X118752170Y-68871955D01*
X118785912Y-68858596D01*
X118797142Y-68854751D01*
X118831983Y-68844629D01*
X118831984Y-68844629D01*
X118839593Y-68842418D01*
X118846412Y-68838385D01*
X118846417Y-68838383D01*
X118857028Y-68832107D01*
X118874776Y-68823412D01*
X118893617Y-68815952D01*
X118929387Y-68789964D01*
X118939307Y-68783448D01*
X118970535Y-68764980D01*
X118970538Y-68764978D01*
X118977362Y-68760942D01*
X118991683Y-68746621D01*
X119006717Y-68733780D01*
X119013900Y-68728561D01*
X119023107Y-68721872D01*
X119051298Y-68687795D01*
X119059288Y-68679016D01*
X119703999Y-68034305D01*
X119766311Y-68000279D01*
X119793094Y-67997400D01*
X122362033Y-67997400D01*
X122373216Y-67997927D01*
X122380709Y-67999602D01*
X122388635Y-67999353D01*
X122388636Y-67999353D01*
X122448786Y-67997462D01*
X122452745Y-67997400D01*
X122480656Y-67997400D01*
X122484591Y-67996903D01*
X122484656Y-67996895D01*
X122496493Y-67995962D01*
X122528751Y-67994948D01*
X122532770Y-67994822D01*
X122540689Y-67994573D01*
X122560143Y-67988921D01*
X122579500Y-67984913D01*
X122591730Y-67983368D01*
X122591731Y-67983368D01*
X122599597Y-67982374D01*
X122606968Y-67979455D01*
X122606970Y-67979455D01*
X122640712Y-67966096D01*
X122651942Y-67962251D01*
X122686783Y-67952129D01*
X122686784Y-67952129D01*
X122694393Y-67949918D01*
X122701212Y-67945885D01*
X122701217Y-67945883D01*
X122711828Y-67939607D01*
X122729576Y-67930912D01*
X122748417Y-67923452D01*
X122784187Y-67897464D01*
X122794107Y-67890948D01*
X122825335Y-67872480D01*
X122825338Y-67872478D01*
X122832162Y-67868442D01*
X122846483Y-67854121D01*
X122861517Y-67841280D01*
X122871493Y-67834032D01*
X122877907Y-67829372D01*
X122906093Y-67795301D01*
X122914082Y-67786522D01*
X123190425Y-67510179D01*
X123234165Y-67482421D01*
X123235959Y-67482010D01*
X123389158Y-67404959D01*
X123394929Y-67400030D01*
X123394932Y-67400028D01*
X123513778Y-67298523D01*
X123519555Y-67293589D01*
X123619624Y-67154330D01*
X123683585Y-66995220D01*
X123684655Y-66987702D01*
X123707166Y-66829531D01*
X123707166Y-66829527D01*
X123707747Y-66825447D01*
X123707904Y-66810500D01*
X123701290Y-66755847D01*
X123688215Y-66647799D01*
X123688214Y-66647796D01*
X123687302Y-66640258D01*
X123684432Y-66632661D01*
X123629371Y-66486947D01*
X123626687Y-66479844D01*
X123592970Y-66430786D01*
X123533859Y-66344778D01*
X123533858Y-66344776D01*
X123529557Y-66338519D01*
X123523886Y-66333466D01*
X123407193Y-66229496D01*
X123407190Y-66229494D01*
X123401521Y-66224443D01*
X123393525Y-66220209D01*
X123303720Y-66172660D01*
X123249969Y-66144200D01*
X123239451Y-66141558D01*
X123091022Y-66104275D01*
X123091018Y-66104275D01*
X123083651Y-66102424D01*
X123076052Y-66102384D01*
X123076050Y-66102384D01*
X122958277Y-66101767D01*
X122890262Y-66081409D01*
X122844051Y-66027510D01*
X122834315Y-65957184D01*
X122864146Y-65892759D01*
X122877107Y-65879958D01*
X122965075Y-65804826D01*
X122965077Y-65804824D01*
X122970855Y-65799889D01*
X123070924Y-65660630D01*
X123134885Y-65501520D01*
X123156034Y-65352919D01*
X123158466Y-65335831D01*
X123158466Y-65335827D01*
X123159047Y-65331747D01*
X123159204Y-65316800D01*
X123138602Y-65146558D01*
X123126124Y-65113534D01*
X123080671Y-64993247D01*
X123077987Y-64986144D01*
X123046305Y-64940046D01*
X122985159Y-64851078D01*
X122985158Y-64851076D01*
X122980857Y-64844819D01*
X122975186Y-64839766D01*
X122858493Y-64735796D01*
X122858490Y-64735794D01*
X122852821Y-64730743D01*
X122844825Y-64726509D01*
X122707981Y-64654054D01*
X122707982Y-64654054D01*
X122701269Y-64650500D01*
X122683696Y-64646086D01*
X122542322Y-64610575D01*
X122542318Y-64610575D01*
X122534951Y-64608724D01*
X122527352Y-64608684D01*
X122527350Y-64608684D01*
X122455894Y-64608310D01*
X122363469Y-64607826D01*
X122356089Y-64609598D01*
X122356087Y-64609598D01*
X122204102Y-64646086D01*
X122204098Y-64646087D01*
X122196723Y-64647858D01*
X122044339Y-64726509D01*
X121915115Y-64839239D01*
X121816510Y-64979539D01*
X121800598Y-65020351D01*
X121781159Y-65070209D01*
X121752861Y-65113534D01*
X120622900Y-66243495D01*
X120560588Y-66277521D01*
X120533805Y-66280400D01*
X113907694Y-66280400D01*
X113839573Y-66260398D01*
X113793080Y-66206742D01*
X113782976Y-66136468D01*
X113812470Y-66071888D01*
X113818599Y-66065305D01*
X116498829Y-63385075D01*
X125812363Y-63385075D01*
X125868310Y-63537136D01*
X125873877Y-63548549D01*
X125969708Y-63703108D01*
X125977460Y-63713174D01*
X126102408Y-63845303D01*
X126112026Y-63853605D01*
X126260987Y-63957908D01*
X126272081Y-63964108D01*
X126438980Y-64036332D01*
X126451083Y-64040171D01*
X126630600Y-64077675D01*
X126640152Y-64078915D01*
X126643384Y-64079000D01*
X127063885Y-64079000D01*
X127079124Y-64074525D01*
X127080329Y-64073135D01*
X127082000Y-64065452D01*
X127082000Y-64060885D01*
X127590000Y-64060885D01*
X127594475Y-64076124D01*
X127595865Y-64077329D01*
X127603548Y-64079000D01*
X127981447Y-64079000D01*
X127987822Y-64078677D01*
X128123277Y-64064918D01*
X128135717Y-64062364D01*
X128309244Y-64007984D01*
X128320932Y-64002975D01*
X128479979Y-63914813D01*
X128490412Y-63907562D01*
X128628491Y-63789215D01*
X128637244Y-63780024D01*
X128748711Y-63636320D01*
X128755435Y-63625560D01*
X128835732Y-63462375D01*
X128840155Y-63450481D01*
X128855251Y-63392530D01*
X128855074Y-63386768D01*
X130243425Y-63386768D01*
X130275138Y-63494521D01*
X130279731Y-63505889D01*
X130365607Y-63670154D01*
X130372321Y-63680415D01*
X130488468Y-63824873D01*
X130497046Y-63833632D01*
X130639039Y-63952778D01*
X130649159Y-63959708D01*
X130811585Y-64049002D01*
X130822858Y-64053834D01*
X130999538Y-64109880D01*
X131011532Y-64112430D01*
X131155761Y-64128607D01*
X131162785Y-64129000D01*
X131243885Y-64129000D01*
X131259124Y-64124525D01*
X131260329Y-64123135D01*
X131262000Y-64115452D01*
X131262000Y-63393115D01*
X131257525Y-63377876D01*
X131256135Y-63376671D01*
X131248452Y-63375000D01*
X130258076Y-63375000D01*
X130244545Y-63378973D01*
X130243425Y-63386768D01*
X128855074Y-63386768D01*
X128854817Y-63378436D01*
X128846636Y-63375000D01*
X127608115Y-63375000D01*
X127592876Y-63379475D01*
X127591671Y-63380865D01*
X127590000Y-63388548D01*
X127590000Y-64060885D01*
X127082000Y-64060885D01*
X127082000Y-63393115D01*
X127077525Y-63377876D01*
X127076135Y-63376671D01*
X127068452Y-63375000D01*
X125826771Y-63375000D01*
X125813240Y-63378973D01*
X125812363Y-63385075D01*
X116498829Y-63385075D01*
X117034434Y-62849470D01*
X125816749Y-62849470D01*
X125817183Y-62863564D01*
X125825364Y-62867000D01*
X128845229Y-62867000D01*
X128856144Y-62863795D01*
X130244544Y-62863795D01*
X130251299Y-62867000D01*
X131243885Y-62867000D01*
X131259124Y-62862525D01*
X131260329Y-62861135D01*
X131262000Y-62853452D01*
X131262000Y-62131115D01*
X131257525Y-62115876D01*
X131256135Y-62114671D01*
X131248452Y-62113000D01*
X131169343Y-62113000D01*
X131163195Y-62113301D01*
X131025397Y-62126812D01*
X131013362Y-62129195D01*
X130835924Y-62182767D01*
X130824584Y-62187441D01*
X130660923Y-62274460D01*
X130650706Y-62281249D01*
X130507067Y-62398397D01*
X130498363Y-62407041D01*
X130380216Y-62549856D01*
X130373356Y-62560027D01*
X130285196Y-62723076D01*
X130280444Y-62734381D01*
X130244750Y-62849692D01*
X130244544Y-62863795D01*
X128856144Y-62863795D01*
X128858760Y-62863027D01*
X128859637Y-62856925D01*
X128803690Y-62704864D01*
X128798123Y-62693451D01*
X128702292Y-62538892D01*
X128694540Y-62528826D01*
X128569594Y-62396699D01*
X128559972Y-62388393D01*
X128532916Y-62369448D01*
X128488588Y-62313990D01*
X128481280Y-62243371D01*
X128500976Y-62195413D01*
X128572442Y-62090255D01*
X128576277Y-62084612D01*
X128643530Y-61916466D01*
X128644644Y-61909738D01*
X128644645Y-61909734D01*
X128671993Y-61744539D01*
X128671993Y-61744536D01*
X128673108Y-61737802D01*
X128668203Y-61644198D01*
X128663987Y-61563766D01*
X128663630Y-61556953D01*
X128640304Y-61472266D01*
X128617352Y-61388941D01*
X128615539Y-61382359D01*
X128531078Y-61222164D01*
X128526673Y-61216951D01*
X128526670Y-61216947D01*
X128418594Y-61089057D01*
X128418590Y-61089053D01*
X128414187Y-61083843D01*
X128399953Y-61072960D01*
X128275743Y-60977994D01*
X128275739Y-60977991D01*
X128270322Y-60973850D01*
X128128596Y-60907762D01*
X128112369Y-60900195D01*
X128112366Y-60900194D01*
X128106192Y-60897315D01*
X128099544Y-60895829D01*
X128099541Y-60895828D01*
X127934494Y-60858936D01*
X127934495Y-60858936D01*
X127929457Y-60857810D01*
X127923912Y-60857500D01*
X127790756Y-60857500D01*
X127655963Y-60872143D01*
X127572609Y-60900195D01*
X127490796Y-60927728D01*
X127490794Y-60927729D01*
X127484325Y-60929906D01*
X127329095Y-61023177D01*
X127324138Y-61027865D01*
X127324135Y-61027867D01*
X127215055Y-61131020D01*
X127197515Y-61147607D01*
X127193683Y-61153245D01*
X127193680Y-61153249D01*
X127142740Y-61228205D01*
X127095723Y-61297388D01*
X127028470Y-61465534D01*
X127027356Y-61472262D01*
X127027355Y-61472266D01*
X127003888Y-61614020D01*
X126998892Y-61644198D01*
X126999249Y-61651015D01*
X126999249Y-61651019D01*
X127005507Y-61770414D01*
X127008370Y-61825047D01*
X127010181Y-61831620D01*
X127010181Y-61831623D01*
X127056461Y-61999641D01*
X127054554Y-62000166D01*
X127060162Y-62061309D01*
X127027393Y-62124291D01*
X126965776Y-62159559D01*
X126936529Y-62163000D01*
X126690553Y-62163000D01*
X126684178Y-62163323D01*
X126548723Y-62177082D01*
X126536283Y-62179636D01*
X126362756Y-62234016D01*
X126351068Y-62239025D01*
X126192021Y-62327187D01*
X126181588Y-62334438D01*
X126043509Y-62452785D01*
X126034756Y-62461976D01*
X125923289Y-62605680D01*
X125916565Y-62616440D01*
X125836268Y-62779625D01*
X125831845Y-62791519D01*
X125816749Y-62849470D01*
X117034434Y-62849470D01*
X122516365Y-57367540D01*
X123608063Y-57367540D01*
X123625763Y-57548060D01*
X123683018Y-57720173D01*
X123686665Y-57726195D01*
X123686666Y-57726197D01*
X123769578Y-57863101D01*
X123776980Y-57875324D01*
X123781870Y-57880388D01*
X123781871Y-57880389D01*
X123801538Y-57900755D01*
X123834469Y-57963652D01*
X123836900Y-57988281D01*
X123836900Y-60615922D01*
X123835822Y-60632369D01*
X123831855Y-60662500D01*
X123836900Y-60700819D01*
X123836900Y-60700821D01*
X123851950Y-60815137D01*
X123855109Y-60822764D01*
X123855110Y-60822767D01*
X123876464Y-60874320D01*
X123886987Y-60899724D01*
X123910866Y-60957373D01*
X123940310Y-60995745D01*
X124004587Y-61079513D01*
X124011137Y-61084539D01*
X124011141Y-61084543D01*
X124028709Y-61098023D01*
X124041101Y-61108891D01*
X124321448Y-61389238D01*
X124355474Y-61451550D01*
X124357752Y-61466038D01*
X124368363Y-61574260D01*
X124425618Y-61746373D01*
X124429265Y-61752395D01*
X124429266Y-61752397D01*
X124477247Y-61831623D01*
X124519580Y-61901524D01*
X124645582Y-62032002D01*
X124651478Y-62035860D01*
X124790064Y-62126548D01*
X124797359Y-62131322D01*
X124803963Y-62133778D01*
X124803965Y-62133779D01*
X124960758Y-62192090D01*
X124960760Y-62192090D01*
X124967368Y-62194548D01*
X125051195Y-62205733D01*
X125140180Y-62217607D01*
X125140184Y-62217607D01*
X125147161Y-62218538D01*
X125154172Y-62217900D01*
X125154176Y-62217900D01*
X125296659Y-62204932D01*
X125327800Y-62202098D01*
X125334502Y-62199920D01*
X125334504Y-62199920D01*
X125493609Y-62148224D01*
X125493612Y-62148223D01*
X125500308Y-62146047D01*
X125603366Y-62084612D01*
X125650060Y-62056777D01*
X125650062Y-62056776D01*
X125656112Y-62053169D01*
X125787466Y-61928082D01*
X125887843Y-61777002D01*
X125952255Y-61607438D01*
X125953235Y-61600466D01*
X125976948Y-61431739D01*
X125976948Y-61431736D01*
X125977499Y-61427817D01*
X125977816Y-61405100D01*
X125957597Y-61224845D01*
X125918382Y-61112234D01*
X125900264Y-61060206D01*
X125900262Y-61060203D01*
X125897945Y-61053548D01*
X125846344Y-60970968D01*
X125805559Y-60905698D01*
X125801826Y-60899724D01*
X125790710Y-60888530D01*
X125678978Y-60776015D01*
X125678974Y-60776012D01*
X125674015Y-60771018D01*
X125520866Y-60673827D01*
X125489056Y-60662500D01*
X125356625Y-60615343D01*
X125356620Y-60615342D01*
X125349990Y-60612981D01*
X125343002Y-60612148D01*
X125342999Y-60612147D01*
X125221848Y-60597701D01*
X125156575Y-60569774D01*
X125147672Y-60561682D01*
X125043205Y-60457215D01*
X125009179Y-60394903D01*
X125006300Y-60368120D01*
X125006300Y-57992482D01*
X125026302Y-57924361D01*
X125035777Y-57911492D01*
X125039763Y-57906741D01*
X125044866Y-57901882D01*
X125145243Y-57750802D01*
X125209655Y-57581238D01*
X125210635Y-57574266D01*
X125234348Y-57405539D01*
X125234348Y-57405536D01*
X125234899Y-57401617D01*
X125235216Y-57378900D01*
X125214997Y-57198645D01*
X125212680Y-57191991D01*
X125157664Y-57034006D01*
X125157662Y-57034003D01*
X125155345Y-57027348D01*
X125059226Y-56873524D01*
X125040729Y-56854897D01*
X124936378Y-56749815D01*
X124936374Y-56749812D01*
X124931415Y-56744818D01*
X124920297Y-56737762D01*
X124863637Y-56701805D01*
X124778266Y-56647627D01*
X124723568Y-56628150D01*
X124614025Y-56589143D01*
X124614020Y-56589142D01*
X124607390Y-56586781D01*
X124600402Y-56585948D01*
X124600399Y-56585947D01*
X124477298Y-56571268D01*
X124427280Y-56565304D01*
X124420277Y-56566040D01*
X124420276Y-56566040D01*
X124253888Y-56583528D01*
X124253886Y-56583529D01*
X124246888Y-56584264D01*
X124075179Y-56642718D01*
X124069175Y-56646412D01*
X123926695Y-56734066D01*
X123926692Y-56734068D01*
X123920688Y-56737762D01*
X123915653Y-56742693D01*
X123915650Y-56742695D01*
X123801074Y-56854897D01*
X123791093Y-56864671D01*
X123692835Y-57017138D01*
X123690426Y-57023758D01*
X123690424Y-57023761D01*
X123685901Y-57036188D01*
X123630797Y-57187585D01*
X123608063Y-57367540D01*
X122516365Y-57367540D01*
X125138830Y-54745075D01*
X125812363Y-54745075D01*
X125868310Y-54897136D01*
X125873877Y-54908549D01*
X125969708Y-55063108D01*
X125977460Y-55073174D01*
X126102408Y-55205303D01*
X126112026Y-55213605D01*
X126260987Y-55317908D01*
X126272081Y-55324108D01*
X126438980Y-55396332D01*
X126451083Y-55400171D01*
X126630600Y-55437675D01*
X126640152Y-55438915D01*
X126643384Y-55439000D01*
X126940975Y-55439000D01*
X127009096Y-55459002D01*
X127055589Y-55512658D01*
X127065693Y-55582932D01*
X127057965Y-55611790D01*
X127028470Y-55685534D01*
X127027356Y-55692262D01*
X127027355Y-55692266D01*
X127011932Y-55785429D01*
X126998892Y-55864198D01*
X126999249Y-55871015D01*
X126999249Y-55871019D01*
X127004151Y-55964539D01*
X127008370Y-56045047D01*
X127010181Y-56051620D01*
X127010181Y-56051623D01*
X127033285Y-56135500D01*
X127056461Y-56219641D01*
X127140922Y-56379836D01*
X127145327Y-56385049D01*
X127145330Y-56385053D01*
X127253406Y-56512943D01*
X127253410Y-56512947D01*
X127257813Y-56518157D01*
X127263237Y-56522304D01*
X127263238Y-56522305D01*
X127396257Y-56624006D01*
X127396261Y-56624009D01*
X127401678Y-56628150D01*
X127488372Y-56668576D01*
X127559631Y-56701805D01*
X127559634Y-56701806D01*
X127565808Y-56704685D01*
X127572456Y-56706171D01*
X127572459Y-56706172D01*
X127678421Y-56729857D01*
X127742543Y-56744190D01*
X127748088Y-56744500D01*
X127881244Y-56744500D01*
X128016037Y-56729857D01*
X128134190Y-56690094D01*
X128181204Y-56674272D01*
X128181206Y-56674271D01*
X128187675Y-56672094D01*
X128342905Y-56578823D01*
X128347862Y-56574135D01*
X128347865Y-56574133D01*
X128469527Y-56459082D01*
X128469529Y-56459080D01*
X128474485Y-56454393D01*
X128478317Y-56448755D01*
X128478320Y-56448751D01*
X128572442Y-56310255D01*
X128576277Y-56304612D01*
X128643530Y-56136466D01*
X128644644Y-56129738D01*
X128644645Y-56129734D01*
X128671993Y-55964539D01*
X128671993Y-55964536D01*
X128673108Y-55957802D01*
X128668263Y-55865343D01*
X128663987Y-55783766D01*
X128663630Y-55776953D01*
X128640304Y-55692266D01*
X128617352Y-55608941D01*
X128615539Y-55602359D01*
X128531078Y-55442164D01*
X128509186Y-55416258D01*
X128480495Y-55351320D01*
X128491467Y-55281176D01*
X128523428Y-55239264D01*
X128628491Y-55149215D01*
X128637244Y-55140024D01*
X128748711Y-54996320D01*
X128755435Y-54985560D01*
X128835732Y-54822375D01*
X128840155Y-54810481D01*
X128855251Y-54752530D01*
X128855074Y-54746768D01*
X130243425Y-54746768D01*
X130275138Y-54854521D01*
X130279731Y-54865889D01*
X130365607Y-55030154D01*
X130372321Y-55040415D01*
X130488468Y-55184873D01*
X130497046Y-55193632D01*
X130639039Y-55312778D01*
X130649159Y-55319708D01*
X130811585Y-55409002D01*
X130822858Y-55413834D01*
X130999538Y-55469880D01*
X131011532Y-55472430D01*
X131155761Y-55488607D01*
X131162785Y-55489000D01*
X131243885Y-55489000D01*
X131259124Y-55484525D01*
X131260329Y-55483135D01*
X131262000Y-55475452D01*
X131262000Y-54753115D01*
X131257525Y-54737876D01*
X131256135Y-54736671D01*
X131248452Y-54735000D01*
X130258076Y-54735000D01*
X130244545Y-54738973D01*
X130243425Y-54746768D01*
X128855074Y-54746768D01*
X128854817Y-54738436D01*
X128846636Y-54735000D01*
X125826771Y-54735000D01*
X125813240Y-54738973D01*
X125812363Y-54745075D01*
X125138830Y-54745075D01*
X125646881Y-54237024D01*
X125709193Y-54202998D01*
X125784768Y-54209949D01*
X125825365Y-54227000D01*
X127063885Y-54227000D01*
X127079124Y-54222525D01*
X127080329Y-54221135D01*
X127082000Y-54213452D01*
X127082000Y-54208885D01*
X127590000Y-54208885D01*
X127594475Y-54224124D01*
X127595865Y-54225329D01*
X127603548Y-54227000D01*
X128845229Y-54227000D01*
X128856144Y-54223795D01*
X130244544Y-54223795D01*
X130251299Y-54227000D01*
X131243885Y-54227000D01*
X131259124Y-54222525D01*
X131260329Y-54221135D01*
X131262000Y-54213452D01*
X131262000Y-53491115D01*
X131257525Y-53475876D01*
X131256135Y-53474671D01*
X131248452Y-53473000D01*
X131169343Y-53473000D01*
X131163195Y-53473301D01*
X131025397Y-53486812D01*
X131013362Y-53489195D01*
X130835924Y-53542767D01*
X130824584Y-53547441D01*
X130660923Y-53634460D01*
X130650706Y-53641249D01*
X130507067Y-53758397D01*
X130498363Y-53767041D01*
X130380216Y-53909856D01*
X130373356Y-53920027D01*
X130285196Y-54083076D01*
X130280444Y-54094381D01*
X130244750Y-54209692D01*
X130244544Y-54223795D01*
X128856144Y-54223795D01*
X128858760Y-54223027D01*
X128859637Y-54216925D01*
X128803690Y-54064864D01*
X128798123Y-54053451D01*
X128702292Y-53898892D01*
X128694540Y-53888826D01*
X128569592Y-53756697D01*
X128559974Y-53748395D01*
X128411013Y-53644092D01*
X128399919Y-53637892D01*
X128233020Y-53565668D01*
X128220917Y-53561829D01*
X128041400Y-53524325D01*
X128031848Y-53523085D01*
X128028616Y-53523000D01*
X127608115Y-53523000D01*
X127592876Y-53527475D01*
X127591671Y-53528865D01*
X127590000Y-53536548D01*
X127590000Y-54208885D01*
X127082000Y-54208885D01*
X127082000Y-53541115D01*
X127077525Y-53525876D01*
X127076135Y-53524671D01*
X127068452Y-53523000D01*
X126690553Y-53523000D01*
X126684171Y-53523323D01*
X126676030Y-53524150D01*
X126606237Y-53511133D01*
X126554561Y-53462449D01*
X126537409Y-53393556D01*
X126560226Y-53326326D01*
X126574205Y-53309700D01*
X127512726Y-52371179D01*
X127556464Y-52343421D01*
X127558259Y-52343010D01*
X127711458Y-52265959D01*
X127717229Y-52261030D01*
X127717232Y-52261028D01*
X127836078Y-52159523D01*
X127841855Y-52154589D01*
X127941924Y-52015330D01*
X128005885Y-51856220D01*
X128030047Y-51686447D01*
X128030204Y-51671500D01*
X128018701Y-51576444D01*
X128010515Y-51508799D01*
X128010514Y-51508796D01*
X128009602Y-51501258D01*
X127997594Y-51469478D01*
X127951671Y-51347947D01*
X127948987Y-51340844D01*
X127898270Y-51267050D01*
X127856159Y-51205778D01*
X127856158Y-51205776D01*
X127851857Y-51199519D01*
X127846186Y-51194466D01*
X127729493Y-51090496D01*
X127729490Y-51090494D01*
X127723821Y-51085443D01*
X127715825Y-51081209D01*
X127578981Y-51008754D01*
X127578982Y-51008754D01*
X127572269Y-51005200D01*
X127554696Y-51000786D01*
X127413322Y-50965275D01*
X127413318Y-50965275D01*
X127405951Y-50963424D01*
X127398352Y-50963384D01*
X127398350Y-50963384D01*
X127326894Y-50963010D01*
X127234469Y-50962526D01*
X127227089Y-50964298D01*
X127227087Y-50964298D01*
X127075102Y-51000786D01*
X127075098Y-51000787D01*
X127067723Y-51002558D01*
X126915339Y-51081209D01*
X126786115Y-51193939D01*
X126687510Y-51334239D01*
X126684750Y-51341319D01*
X126684748Y-51341322D01*
X126652159Y-51424909D01*
X126623861Y-51468235D01*
X113079400Y-65012695D01*
X113017088Y-65046721D01*
X112990305Y-65049600D01*
X111393694Y-65049600D01*
X111325573Y-65029598D01*
X111279080Y-64975942D01*
X111268976Y-64905668D01*
X111298470Y-64841088D01*
X111304599Y-64834505D01*
X114356232Y-61782873D01*
X117546853Y-58592252D01*
X117555139Y-58584712D01*
X117561618Y-58580600D01*
X117608244Y-58530948D01*
X117610998Y-58528107D01*
X117630735Y-58508370D01*
X117633215Y-58505173D01*
X117640920Y-58496151D01*
X117665759Y-58469700D01*
X117671186Y-58463921D01*
X117675005Y-58456975D01*
X117675007Y-58456972D01*
X117680948Y-58446166D01*
X117691799Y-58429647D01*
X117699358Y-58419901D01*
X117704214Y-58413641D01*
X117707359Y-58406372D01*
X117707362Y-58406368D01*
X117721774Y-58373063D01*
X117726991Y-58362413D01*
X117748295Y-58323660D01*
X117753333Y-58304037D01*
X117759737Y-58285334D01*
X117764633Y-58274020D01*
X117764633Y-58274019D01*
X117767781Y-58266745D01*
X117769020Y-58258922D01*
X117769023Y-58258912D01*
X117774699Y-58223076D01*
X117777105Y-58211456D01*
X117786128Y-58176311D01*
X117786128Y-58176310D01*
X117788100Y-58168630D01*
X117788100Y-58148376D01*
X117789651Y-58128665D01*
X117791580Y-58116486D01*
X117792820Y-58108657D01*
X117788659Y-58064638D01*
X117788100Y-58052781D01*
X117788100Y-53788819D01*
X117797192Y-53741823D01*
X117809081Y-53712247D01*
X117843985Y-53625420D01*
X117857727Y-53528865D01*
X117867566Y-53459731D01*
X117867566Y-53459727D01*
X117868147Y-53455647D01*
X117868304Y-53440700D01*
X117847702Y-53270458D01*
X117799474Y-53142824D01*
X117789771Y-53117147D01*
X117787087Y-53110044D01*
X117731201Y-53028729D01*
X117694259Y-52974978D01*
X117694258Y-52974976D01*
X117689957Y-52968719D01*
X117684286Y-52963666D01*
X117567593Y-52859696D01*
X117567590Y-52859694D01*
X117561921Y-52854643D01*
X117553925Y-52850409D01*
X117449368Y-52795049D01*
X117410369Y-52774400D01*
X117365358Y-52763094D01*
X117251422Y-52734475D01*
X117251418Y-52734475D01*
X117244051Y-52732624D01*
X117236452Y-52732584D01*
X117236450Y-52732584D01*
X117164994Y-52732210D01*
X117072569Y-52731726D01*
X117065189Y-52733498D01*
X117065187Y-52733498D01*
X116913202Y-52769986D01*
X116913198Y-52769987D01*
X116905823Y-52771758D01*
X116753439Y-52850409D01*
X116624215Y-52963139D01*
X116525610Y-53103439D01*
X116502569Y-53162535D01*
X116475301Y-53232475D01*
X116463318Y-53263209D01*
X116462326Y-53270742D01*
X116462326Y-53270743D01*
X116446158Y-53393556D01*
X116440935Y-53433226D01*
X116445370Y-53473393D01*
X116453625Y-53548166D01*
X116459753Y-53603675D01*
X116462362Y-53610806D01*
X116462363Y-53610808D01*
X116513426Y-53750344D01*
X116521100Y-53793645D01*
X116521100Y-57774006D01*
X116501098Y-57842127D01*
X116484195Y-57863101D01*
X113468495Y-60878801D01*
X113406183Y-60912827D01*
X113335368Y-60907762D01*
X113278532Y-60865215D01*
X113253721Y-60798695D01*
X113253400Y-60789706D01*
X113253400Y-53117468D01*
X113253927Y-53106285D01*
X113255602Y-53098792D01*
X113254823Y-53073989D01*
X113253462Y-53030702D01*
X113253400Y-53026744D01*
X113253400Y-52998844D01*
X113252896Y-52994853D01*
X113251963Y-52983011D01*
X113251339Y-52963139D01*
X113250574Y-52938811D01*
X113244921Y-52919352D01*
X113240912Y-52899993D01*
X113240746Y-52898683D01*
X113238374Y-52879903D01*
X113235458Y-52872537D01*
X113235456Y-52872531D01*
X113222100Y-52838798D01*
X113218255Y-52827568D01*
X113208130Y-52792717D01*
X113208130Y-52792716D01*
X113205919Y-52785107D01*
X113195605Y-52767666D01*
X113186908Y-52749913D01*
X113182372Y-52738458D01*
X113179452Y-52731083D01*
X113153463Y-52695312D01*
X113146947Y-52685392D01*
X113128478Y-52654163D01*
X113124442Y-52647338D01*
X113110121Y-52633017D01*
X113097280Y-52617983D01*
X113090031Y-52608006D01*
X113085372Y-52601593D01*
X113079268Y-52596543D01*
X113079263Y-52596538D01*
X113051302Y-52573407D01*
X113042521Y-52565417D01*
X112208907Y-51731802D01*
X112180137Y-51687245D01*
X112179836Y-51686447D01*
X112148887Y-51604544D01*
X112106997Y-51543593D01*
X112056059Y-51469478D01*
X112056058Y-51469476D01*
X112051757Y-51463219D01*
X112046086Y-51458166D01*
X111929393Y-51354196D01*
X111929390Y-51354194D01*
X111923721Y-51349143D01*
X111915725Y-51344909D01*
X111778881Y-51272454D01*
X111778882Y-51272454D01*
X111772169Y-51268900D01*
X111754596Y-51264486D01*
X111613222Y-51228975D01*
X111613218Y-51228975D01*
X111605851Y-51227124D01*
X111598252Y-51227084D01*
X111598250Y-51227084D01*
X111526794Y-51226710D01*
X111434369Y-51226226D01*
X111426989Y-51227998D01*
X111426987Y-51227998D01*
X111275002Y-51264486D01*
X111274998Y-51264487D01*
X111267623Y-51266258D01*
X111115239Y-51344909D01*
X110986015Y-51457639D01*
X110981648Y-51463853D01*
X110981645Y-51463856D01*
X110956692Y-51499361D01*
X110901158Y-51543593D01*
X110830526Y-51550779D01*
X110767222Y-51518638D01*
X110749765Y-51498278D01*
X110710659Y-51441378D01*
X110710658Y-51441376D01*
X110706357Y-51435119D01*
X110700686Y-51430066D01*
X110583993Y-51326096D01*
X110583990Y-51326094D01*
X110578321Y-51321043D01*
X110570325Y-51316809D01*
X110476346Y-51267050D01*
X110426769Y-51240800D01*
X110409196Y-51236386D01*
X110267822Y-51200875D01*
X110267818Y-51200875D01*
X110260451Y-51199024D01*
X110252852Y-51198984D01*
X110252850Y-51198984D01*
X110181394Y-51198610D01*
X110088969Y-51198126D01*
X110081589Y-51199898D01*
X110081587Y-51199898D01*
X109929602Y-51236386D01*
X109929598Y-51236387D01*
X109922223Y-51238158D01*
X109769839Y-51316809D01*
X109640615Y-51429539D01*
X109542010Y-51569839D01*
X109539250Y-51576919D01*
X109494681Y-51691232D01*
X109479718Y-51729609D01*
X109457335Y-51899626D01*
X109476153Y-52070075D01*
X109535085Y-52231115D01*
X109539322Y-52237421D01*
X109539324Y-52237424D01*
X109566992Y-52278598D01*
X109630730Y-52373449D01*
X109686375Y-52424082D01*
X109725097Y-52459316D01*
X109757565Y-52488860D01*
X109764240Y-52492484D01*
X109901591Y-52567060D01*
X109901593Y-52567061D01*
X109908268Y-52570685D01*
X109915617Y-52572613D01*
X109916494Y-52572843D01*
X109917153Y-52573221D01*
X109922679Y-52575409D01*
X109922362Y-52576210D01*
X109973621Y-52605625D01*
X111494195Y-54126199D01*
X111528221Y-54188511D01*
X111531100Y-54215294D01*
X111531100Y-54610000D01*
X111511098Y-54678121D01*
X111457442Y-54724614D01*
X111405100Y-54736000D01*
X110175115Y-54736000D01*
X110159876Y-54740475D01*
X110158671Y-54741865D01*
X110157000Y-54749548D01*
X110157000Y-56009500D01*
X110136998Y-56077621D01*
X110083342Y-56124114D01*
X110031000Y-56135500D01*
X109933000Y-56135500D01*
X109864879Y-56115498D01*
X109818386Y-56061842D01*
X109807000Y-56009500D01*
X109807000Y-54754116D01*
X109802525Y-54738877D01*
X109801135Y-54737672D01*
X109793452Y-54736001D01*
X108437331Y-54736001D01*
X108430510Y-54736371D01*
X108379648Y-54741895D01*
X108364396Y-54745521D01*
X108243946Y-54790676D01*
X108228349Y-54799215D01*
X108217485Y-54807357D01*
X108150978Y-54832203D01*
X108081596Y-54817149D01*
X108052828Y-54795624D01*
X107177232Y-53920027D01*
X105779252Y-52522047D01*
X105771712Y-52513761D01*
X105767600Y-52507282D01*
X105717948Y-52460656D01*
X105715107Y-52457902D01*
X105695370Y-52438165D01*
X105692173Y-52435685D01*
X105683151Y-52427980D01*
X105669722Y-52415369D01*
X105650921Y-52397714D01*
X105643975Y-52393895D01*
X105643972Y-52393893D01*
X105633166Y-52387952D01*
X105616647Y-52377101D01*
X105616183Y-52376741D01*
X105600641Y-52364686D01*
X105593372Y-52361541D01*
X105593368Y-52361538D01*
X105560063Y-52347126D01*
X105549413Y-52341909D01*
X105510660Y-52320605D01*
X105491037Y-52315567D01*
X105472334Y-52309163D01*
X105461020Y-52304267D01*
X105461019Y-52304267D01*
X105453745Y-52301119D01*
X105445922Y-52299880D01*
X105445912Y-52299877D01*
X105410076Y-52294201D01*
X105398456Y-52291795D01*
X105363311Y-52282772D01*
X105363310Y-52282772D01*
X105355630Y-52280800D01*
X105335376Y-52280800D01*
X105315665Y-52279249D01*
X105303486Y-52277320D01*
X105295657Y-52276080D01*
X105266386Y-52278847D01*
X105251639Y-52280241D01*
X105239781Y-52280800D01*
X104856168Y-52280800D01*
X104844985Y-52280273D01*
X104837492Y-52278598D01*
X104829566Y-52278847D01*
X104829565Y-52278847D01*
X104769402Y-52280738D01*
X104765444Y-52280800D01*
X104737544Y-52280800D01*
X104733554Y-52281304D01*
X104721720Y-52282236D01*
X104677511Y-52283626D01*
X104669897Y-52285838D01*
X104669892Y-52285839D01*
X104658059Y-52289277D01*
X104638696Y-52293288D01*
X104618603Y-52295826D01*
X104611236Y-52298743D01*
X104611231Y-52298744D01*
X104577492Y-52312102D01*
X104566265Y-52315946D01*
X104523807Y-52328282D01*
X104516981Y-52332319D01*
X104506372Y-52338593D01*
X104488624Y-52347288D01*
X104469783Y-52354748D01*
X104463367Y-52359410D01*
X104463366Y-52359410D01*
X104434013Y-52380736D01*
X104424093Y-52387252D01*
X104392865Y-52405720D01*
X104392862Y-52405722D01*
X104386038Y-52409758D01*
X104371714Y-52424082D01*
X104356687Y-52436917D01*
X104340293Y-52448828D01*
X104335240Y-52454936D01*
X104335238Y-52454938D01*
X104312112Y-52482893D01*
X104304122Y-52491674D01*
X104096842Y-52698953D01*
X104088563Y-52706487D01*
X104082082Y-52710600D01*
X104059662Y-52734475D01*
X104035456Y-52760252D01*
X104032701Y-52763094D01*
X104012965Y-52782830D01*
X104010485Y-52786027D01*
X104002782Y-52795047D01*
X103972514Y-52827279D01*
X103968695Y-52834225D01*
X103968693Y-52834228D01*
X103962752Y-52845034D01*
X103951901Y-52861553D01*
X103939486Y-52877559D01*
X103936341Y-52884828D01*
X103936338Y-52884832D01*
X103921926Y-52918137D01*
X103916709Y-52928787D01*
X103895405Y-52967540D01*
X103893434Y-52975215D01*
X103893434Y-52975216D01*
X103890367Y-52987162D01*
X103883963Y-53005866D01*
X103875919Y-53024455D01*
X103874680Y-53032278D01*
X103874677Y-53032288D01*
X103869001Y-53068124D01*
X103866595Y-53079744D01*
X103855600Y-53122570D01*
X103855600Y-53142824D01*
X103854049Y-53162534D01*
X103850880Y-53182543D01*
X103851626Y-53190435D01*
X103855041Y-53226561D01*
X103855600Y-53238419D01*
X103855600Y-66425033D01*
X103855073Y-66436216D01*
X103853398Y-66443709D01*
X103853647Y-66451635D01*
X103853647Y-66451636D01*
X103855538Y-66511786D01*
X103855600Y-66515745D01*
X103855600Y-66543656D01*
X103856097Y-66547590D01*
X103856097Y-66547591D01*
X103856105Y-66547656D01*
X103857038Y-66559493D01*
X103858427Y-66603689D01*
X103861564Y-66614486D01*
X103864078Y-66623139D01*
X103868087Y-66642500D01*
X103870626Y-66662597D01*
X103873544Y-66669967D01*
X103873545Y-66669971D01*
X103882669Y-66693015D01*
X103889149Y-66763716D01*
X103856377Y-66826696D01*
X103794758Y-66861960D01*
X103765518Y-66865400D01*
X98618700Y-66865400D01*
X98550579Y-66845398D01*
X98504086Y-66791742D01*
X98500833Y-66783934D01*
X98498572Y-66777949D01*
X98498571Y-66777947D01*
X98495887Y-66770844D01*
X98416084Y-66654730D01*
X98403059Y-66635778D01*
X98403058Y-66635776D01*
X98398757Y-66629519D01*
X98393086Y-66624466D01*
X98276393Y-66520496D01*
X98276390Y-66520494D01*
X98270721Y-66515443D01*
X98262725Y-66511209D01*
X98191012Y-66473239D01*
X98119169Y-66435200D01*
X98101596Y-66430786D01*
X97960222Y-66395275D01*
X97960218Y-66395275D01*
X97952851Y-66393424D01*
X97945252Y-66393384D01*
X97945250Y-66393384D01*
X97873794Y-66393010D01*
X97781369Y-66392526D01*
X97773989Y-66394298D01*
X97773987Y-66394298D01*
X97622002Y-66430786D01*
X97621998Y-66430787D01*
X97614623Y-66432558D01*
X97462239Y-66511209D01*
X97333015Y-66623939D01*
X97234410Y-66764239D01*
X97172118Y-66924009D01*
X97171126Y-66931542D01*
X97171126Y-66931543D01*
X97161816Y-67002264D01*
X97149735Y-67094026D01*
X95250000Y-67094026D01*
X95250000Y-50164500D01*
X95270002Y-50096379D01*
X95323658Y-50049886D01*
X95376000Y-50038500D01*
X132030633Y-50038500D01*
X132050018Y-50040000D01*
G37*
G04 #@! TD.AperFunction*
G04 #@! TA.AperFunction,Conductor*
G36*
X105331112Y-60489770D02*
G01*
X105337694Y-60495898D01*
X106572776Y-61730981D01*
X107653048Y-62811253D01*
X107660588Y-62819539D01*
X107664700Y-62826018D01*
X107670477Y-62831443D01*
X107714351Y-62872643D01*
X107717193Y-62875398D01*
X107736930Y-62895135D01*
X107740127Y-62897615D01*
X107749147Y-62905318D01*
X107781379Y-62935586D01*
X107788325Y-62939405D01*
X107788328Y-62939407D01*
X107799134Y-62945348D01*
X107815653Y-62956199D01*
X107831659Y-62968614D01*
X107838928Y-62971759D01*
X107838932Y-62971762D01*
X107872237Y-62986174D01*
X107882887Y-62991391D01*
X107921640Y-63012695D01*
X107929315Y-63014666D01*
X107929316Y-63014666D01*
X107941262Y-63017733D01*
X107959967Y-63024137D01*
X107978555Y-63032181D01*
X107986378Y-63033420D01*
X107986388Y-63033423D01*
X108022224Y-63039099D01*
X108033843Y-63041505D01*
X108051188Y-63045958D01*
X108112195Y-63082271D01*
X108143885Y-63145802D01*
X108136197Y-63216382D01*
X108091571Y-63271600D01*
X108019856Y-63294000D01*
X107992116Y-63294000D01*
X107976877Y-63298475D01*
X107975672Y-63299865D01*
X107974001Y-63307548D01*
X107974001Y-63338669D01*
X107974371Y-63345490D01*
X107979895Y-63396352D01*
X107983521Y-63411604D01*
X108028676Y-63532054D01*
X108037214Y-63547649D01*
X108113715Y-63649724D01*
X108126276Y-63662285D01*
X108228351Y-63738786D01*
X108243946Y-63747324D01*
X108364394Y-63792478D01*
X108379649Y-63796105D01*
X108430514Y-63801631D01*
X108437328Y-63802000D01*
X109788885Y-63802000D01*
X109804124Y-63797525D01*
X109805329Y-63796135D01*
X109807000Y-63788452D01*
X109807000Y-63312114D01*
X109792872Y-63263997D01*
X109792872Y-63193001D01*
X109831256Y-63133275D01*
X109895837Y-63103782D01*
X109913768Y-63102500D01*
X110031000Y-63102500D01*
X110099121Y-63122502D01*
X110145614Y-63176158D01*
X110157000Y-63228500D01*
X110157000Y-63783884D01*
X110161475Y-63799123D01*
X110162865Y-63800328D01*
X110170548Y-63801999D01*
X110241106Y-63801999D01*
X110309227Y-63822001D01*
X110355720Y-63875657D01*
X110365824Y-63945931D01*
X110336330Y-64010511D01*
X110330201Y-64017094D01*
X109995600Y-64351695D01*
X109933288Y-64385721D01*
X109906505Y-64388600D01*
X109731927Y-64388600D01*
X109672968Y-64373954D01*
X109645587Y-64359457D01*
X109638869Y-64355900D01*
X109621296Y-64351486D01*
X109479922Y-64315975D01*
X109479918Y-64315975D01*
X109472551Y-64314124D01*
X109464952Y-64314084D01*
X109464950Y-64314084D01*
X109393494Y-64313710D01*
X109301069Y-64313226D01*
X109293689Y-64314998D01*
X109293687Y-64314998D01*
X109141702Y-64351486D01*
X109141698Y-64351487D01*
X109134323Y-64353258D01*
X108981939Y-64431909D01*
X108852715Y-64544639D01*
X108754110Y-64684939D01*
X108691818Y-64844709D01*
X108690826Y-64852242D01*
X108690826Y-64852243D01*
X108679267Y-64940046D01*
X108650545Y-65004973D01*
X108591280Y-65044065D01*
X108554345Y-65049600D01*
X108494515Y-65049600D01*
X108435559Y-65034956D01*
X108401269Y-65016800D01*
X108390751Y-65014158D01*
X108242322Y-64976875D01*
X108242318Y-64976875D01*
X108234951Y-64975024D01*
X108227352Y-64974984D01*
X108227350Y-64974984D01*
X108155894Y-64974610D01*
X108063469Y-64974126D01*
X108056089Y-64975898D01*
X108056087Y-64975898D01*
X107904102Y-65012386D01*
X107904098Y-65012387D01*
X107896723Y-65014158D01*
X107744339Y-65092809D01*
X107615115Y-65205539D01*
X107516510Y-65345839D01*
X107454218Y-65505609D01*
X107453226Y-65513142D01*
X107453226Y-65513143D01*
X107434737Y-65653585D01*
X107431835Y-65675626D01*
X107450653Y-65846075D01*
X107509585Y-66007115D01*
X107605230Y-66149449D01*
X107732065Y-66264860D01*
X107882768Y-66346685D01*
X108048639Y-66390201D01*
X108136086Y-66391574D01*
X108212503Y-66392775D01*
X108212506Y-66392775D01*
X108220102Y-66392894D01*
X108227506Y-66391198D01*
X108227508Y-66391198D01*
X108290346Y-66376806D01*
X108387259Y-66354610D01*
X108436122Y-66330035D01*
X108492735Y-66316600D01*
X111581508Y-66316600D01*
X111649629Y-66336602D01*
X111696122Y-66390258D01*
X111706226Y-66460532D01*
X111684595Y-66515051D01*
X111641310Y-66576639D01*
X111622663Y-66624466D01*
X111595937Y-66693015D01*
X111579018Y-66736409D01*
X111578027Y-66743940D01*
X111578026Y-66743942D01*
X111576459Y-66755847D01*
X111547736Y-66820774D01*
X111488471Y-66859865D01*
X111451537Y-66865400D01*
X105748351Y-66865400D01*
X105680230Y-66845398D01*
X105633737Y-66791742D01*
X105630027Y-66781073D01*
X105629802Y-66781158D01*
X105571871Y-66627847D01*
X105569187Y-66620744D01*
X105543740Y-66583719D01*
X105476359Y-66485678D01*
X105476358Y-66485676D01*
X105472057Y-66479419D01*
X105466386Y-66474366D01*
X105349693Y-66370396D01*
X105349690Y-66370394D01*
X105344021Y-66365343D01*
X105293360Y-66338519D01*
X105192469Y-66285100D01*
X105193670Y-66282831D01*
X105147008Y-66247192D01*
X105122840Y-66180435D01*
X105122600Y-66172660D01*
X105122600Y-60584994D01*
X105142602Y-60516873D01*
X105196258Y-60470380D01*
X105266532Y-60460276D01*
X105331112Y-60489770D01*
G37*
G04 #@! TD.AperFunction*
G04 #@! TA.AperFunction,Conductor*
G36*
X110099121Y-58222502D02*
G01*
X110145614Y-58276158D01*
X110157000Y-58328500D01*
X110157000Y-58809500D01*
X110136998Y-58877621D01*
X110083342Y-58924114D01*
X110031000Y-58935500D01*
X109933000Y-58935500D01*
X109864879Y-58915498D01*
X109818386Y-58861842D01*
X109807000Y-58809500D01*
X109807000Y-58328500D01*
X109827002Y-58260379D01*
X109880658Y-58213886D01*
X109933000Y-58202500D01*
X110031000Y-58202500D01*
X110099121Y-58222502D01*
G37*
G04 #@! TD.AperFunction*
M02*
