G04 #@! TF.GenerationSoftware,KiCad,Pcbnew,(6.0.11)*
G04 #@! TF.CreationDate,2023-04-28T13:02:25+02:00*
G04 #@! TF.ProjectId,cyberticket,63796265-7274-4696-936b-65742e6b6963,rev?*
G04 #@! TF.SameCoordinates,Original*
G04 #@! TF.FileFunction,Copper,L1,Top*
G04 #@! TF.FilePolarity,Positive*
%FSLAX46Y46*%
G04 Gerber Fmt 4.6, Leading zero omitted, Abs format (unit mm)*
G04 Created by KiCad (PCBNEW (6.0.11)) date 2023-04-28 13:02:25*
%MOMM*%
%LPD*%
G01*
G04 APERTURE LIST*
G04 Aperture macros list*
%AMRoundRect*
0 Rectangle with rounded corners*
0 $1 Rounding radius*
0 $2 $3 $4 $5 $6 $7 $8 $9 X,Y pos of 4 corners*
0 Add a 4 corners polygon primitive as box body*
4,1,4,$2,$3,$4,$5,$6,$7,$8,$9,$2,$3,0*
0 Add four circle primitives for the rounded corners*
1,1,$1+$1,$2,$3*
1,1,$1+$1,$4,$5*
1,1,$1+$1,$6,$7*
1,1,$1+$1,$8,$9*
0 Add four rect primitives between the rounded corners*
20,1,$1+$1,$2,$3,$4,$5,0*
20,1,$1+$1,$4,$5,$6,$7,0*
20,1,$1+$1,$6,$7,$8,$9,0*
20,1,$1+$1,$8,$9,$2,$3,0*%
G04 Aperture macros list end*
G04 #@! TA.AperFunction,SMDPad,CuDef*
%ADD10R,0.900000X1.700000*%
G04 #@! TD*
G04 #@! TA.AperFunction,SMDPad,CuDef*
%ADD11C,1.000000*%
G04 #@! TD*
G04 #@! TA.AperFunction,SMDPad,CuDef*
%ADD12RoundRect,0.225000X0.250000X-0.225000X0.250000X0.225000X-0.250000X0.225000X-0.250000X-0.225000X0*%
G04 #@! TD*
G04 #@! TA.AperFunction,SMDPad,CuDef*
%ADD13RoundRect,0.200000X0.200000X0.275000X-0.200000X0.275000X-0.200000X-0.275000X0.200000X-0.275000X0*%
G04 #@! TD*
G04 #@! TA.AperFunction,SMDPad,CuDef*
%ADD14RoundRect,0.200000X-0.200000X-0.275000X0.200000X-0.275000X0.200000X0.275000X-0.200000X0.275000X0*%
G04 #@! TD*
G04 #@! TA.AperFunction,SMDPad,CuDef*
%ADD15RoundRect,0.218750X0.218750X0.256250X-0.218750X0.256250X-0.218750X-0.256250X0.218750X-0.256250X0*%
G04 #@! TD*
G04 #@! TA.AperFunction,SMDPad,CuDef*
%ADD16RoundRect,0.150000X-0.512500X-0.150000X0.512500X-0.150000X0.512500X0.150000X-0.512500X0.150000X0*%
G04 #@! TD*
G04 #@! TA.AperFunction,SMDPad,CuDef*
%ADD17R,0.900000X1.500000*%
G04 #@! TD*
G04 #@! TA.AperFunction,SMDPad,CuDef*
%ADD18R,1.500000X0.900000*%
G04 #@! TD*
G04 #@! TA.AperFunction,SMDPad,CuDef*
%ADD19R,0.900000X0.900000*%
G04 #@! TD*
G04 #@! TA.AperFunction,SMDPad,CuDef*
%ADD20RoundRect,0.225000X0.225000X0.250000X-0.225000X0.250000X-0.225000X-0.250000X0.225000X-0.250000X0*%
G04 #@! TD*
G04 #@! TA.AperFunction,SMDPad,CuDef*
%ADD21R,1.750000X0.300000*%
G04 #@! TD*
G04 #@! TA.AperFunction,ComponentPad*
%ADD22O,1.600000X1.000000*%
G04 #@! TD*
G04 #@! TA.AperFunction,ComponentPad*
%ADD23O,2.100000X0.900000*%
G04 #@! TD*
G04 #@! TA.AperFunction,SMDPad,CuDef*
%ADD24RoundRect,0.200000X0.275000X-0.200000X0.275000X0.200000X-0.275000X0.200000X-0.275000X-0.200000X0*%
G04 #@! TD*
G04 #@! TA.AperFunction,ViaPad*
%ADD25C,0.600000*%
G04 #@! TD*
G04 #@! TA.AperFunction,ViaPad*
%ADD26C,0.400000*%
G04 #@! TD*
G04 #@! TA.AperFunction,Conductor*
%ADD27C,0.250000*%
G04 #@! TD*
G04 #@! TA.AperFunction,Conductor*
%ADD28C,0.152400*%
G04 #@! TD*
G04 APERTURE END LIST*
D10*
X118393000Y-62992000D03*
X121793000Y-62992000D03*
D11*
X131953000Y-67056000D03*
D12*
X123376400Y-56598400D03*
X123376400Y-55048400D03*
D13*
X124924400Y-65151000D03*
X123274400Y-65151000D03*
D14*
X126467500Y-51085500D03*
X128117500Y-51085500D03*
D13*
X124924400Y-67691000D03*
X123274400Y-67691000D03*
D12*
X116518400Y-52674400D03*
X116518400Y-51124400D03*
D15*
X128257000Y-65405000D03*
X126682000Y-65405000D03*
D11*
X131953000Y-51308000D03*
D16*
X118942400Y-58490400D03*
X118942400Y-59440400D03*
X118942400Y-60390400D03*
X121217400Y-60390400D03*
X121217400Y-58490400D03*
D17*
X96276400Y-68256400D03*
X97546400Y-68256400D03*
X98816400Y-68256400D03*
X100086400Y-68256400D03*
X101356400Y-68256400D03*
X102626400Y-68256400D03*
X103896400Y-68256400D03*
X105166400Y-68256400D03*
X106436400Y-68256400D03*
X107706400Y-68256400D03*
X108976400Y-68256400D03*
X110246400Y-68256400D03*
X111516400Y-68256400D03*
X112786400Y-68256400D03*
D18*
X114036400Y-66491400D03*
X114036400Y-65221400D03*
X114036400Y-63951400D03*
X114036400Y-62681400D03*
X114036400Y-61411400D03*
X114036400Y-60141400D03*
X114036400Y-58871400D03*
X114036400Y-57601400D03*
X114036400Y-56331400D03*
X114036400Y-55061400D03*
X114036400Y-53791400D03*
X114036400Y-52521400D03*
D17*
X112786400Y-50756400D03*
X111516400Y-50756400D03*
X110246400Y-50756400D03*
X108976400Y-50756400D03*
X107706400Y-50756400D03*
X106436400Y-50756400D03*
X105166400Y-50756400D03*
X103896400Y-50756400D03*
X102626400Y-50756400D03*
X101356400Y-50756400D03*
X100086400Y-50756400D03*
X98816400Y-50756400D03*
X97546400Y-50756400D03*
X96276400Y-50756400D03*
D19*
X103996400Y-61006400D03*
X105396400Y-62406400D03*
X105396400Y-61006400D03*
X102596400Y-62406400D03*
X103996400Y-62406400D03*
X102596400Y-61006400D03*
X102596400Y-59606400D03*
X105396400Y-59606400D03*
X103996400Y-59606400D03*
D14*
X119825000Y-66294000D03*
X121475000Y-66294000D03*
D10*
X121696400Y-55696400D03*
X118296400Y-55696400D03*
D15*
X128041500Y-52736500D03*
X126466500Y-52736500D03*
D20*
X118068400Y-68650400D03*
X116518400Y-68650400D03*
D21*
X126496000Y-62151000D03*
X126496000Y-61351000D03*
X126496000Y-60051000D03*
X126496000Y-59051000D03*
X126496000Y-58551000D03*
X126496000Y-57551000D03*
X126496000Y-56251000D03*
X126496000Y-55451000D03*
X126496000Y-55751000D03*
X126496000Y-56551000D03*
X126496000Y-57051000D03*
X126496000Y-58051000D03*
X126496000Y-59551000D03*
X126496000Y-60551000D03*
X126496000Y-61051000D03*
X126496000Y-61851000D03*
D22*
X131516000Y-54481000D03*
X131516000Y-63121000D03*
D23*
X127336000Y-63121000D03*
X127336000Y-54481000D03*
D20*
X118118400Y-66294000D03*
X116568400Y-66294000D03*
D12*
X123122400Y-60167400D03*
X123122400Y-58617400D03*
X117026400Y-60167400D03*
X117026400Y-58617400D03*
D10*
X118296400Y-51886400D03*
X121696400Y-51886400D03*
D14*
X126683000Y-67056000D03*
X128333000Y-67056000D03*
D13*
X121284000Y-68707000D03*
X119634000Y-68707000D03*
D24*
X116713000Y-63499000D03*
X116713000Y-61849000D03*
X123376400Y-52774400D03*
X123376400Y-51124400D03*
D25*
X119253000Y-51054000D03*
X118364000Y-65328800D03*
X118160800Y-68890100D03*
X115570000Y-54864000D03*
X108254800Y-52679600D03*
X122809000Y-60706000D03*
X124714000Y-62738000D03*
X101447600Y-66192400D03*
X122174000Y-68173600D03*
X116967000Y-60071000D03*
X115570000Y-50800000D03*
X119888000Y-65430400D03*
X106121200Y-66446400D03*
X120142000Y-61468000D03*
X108253100Y-63709100D03*
X108026200Y-58238900D03*
X117856000Y-59309000D03*
D26*
X113834800Y-67498900D03*
X97863400Y-67101500D03*
X109383100Y-65022200D03*
X117154600Y-53440700D03*
D25*
X125164200Y-61405100D03*
X124421600Y-57378900D03*
D26*
X104936700Y-66951400D03*
X108046700Y-57441400D03*
X111516400Y-51935200D03*
X110171000Y-51907100D03*
X122445500Y-65316800D03*
X112270300Y-66913900D03*
X114003500Y-68256400D03*
X122994200Y-66810500D03*
X106436400Y-58726000D03*
X105861700Y-54485900D03*
X105014500Y-53447900D03*
X108145500Y-65683100D03*
X127316500Y-51671500D03*
D27*
X126496000Y-59051000D02*
X127605500Y-59051000D01*
X127696300Y-58960200D02*
X127742600Y-58960200D01*
X127605500Y-59051000D02*
X127696300Y-58960200D01*
X126494500Y-64346800D02*
X125696400Y-65144900D01*
X127742600Y-58960200D02*
X129224300Y-60441900D01*
X125696400Y-65144900D02*
X125696400Y-66919000D01*
X128579900Y-64346800D02*
X126494500Y-64346800D01*
X126496000Y-58051000D02*
X127696300Y-58051000D01*
X127696300Y-58051000D02*
X127696300Y-58960200D01*
X129224300Y-60441900D02*
X129224300Y-63702400D01*
X129224300Y-63702400D02*
X128579900Y-64346800D01*
X125696400Y-66919000D02*
X124924400Y-67691000D01*
D28*
X119825000Y-66294000D02*
X119825000Y-66814200D01*
X123589200Y-56598400D02*
X124460000Y-55727600D01*
X117987400Y-59440400D02*
X117856000Y-59309000D01*
X121640600Y-68707000D02*
X122174000Y-68173600D01*
X119825000Y-66814200D02*
X118068400Y-68570800D01*
X126496000Y-55751000D02*
X126496000Y-55321000D01*
X123376400Y-56598400D02*
X123589200Y-56598400D01*
X118068400Y-68570800D02*
X118068400Y-68650400D01*
X124483400Y-55751000D02*
X126496000Y-55751000D01*
X127336000Y-62991000D02*
X126496000Y-62151000D01*
X118942400Y-59440400D02*
X117987400Y-59440400D01*
X126496000Y-55321000D02*
X127336000Y-54481000D01*
X121284000Y-68707000D02*
X121640600Y-68707000D01*
X127336000Y-63121000D02*
X127336000Y-62991000D01*
X124460000Y-55727600D02*
X124483400Y-55751000D01*
D27*
X126496000Y-58551000D02*
X125295700Y-58551000D01*
X126496000Y-59551000D02*
X125295700Y-59551000D01*
X126496000Y-59551000D02*
X127696300Y-59551000D01*
X125295700Y-59551000D02*
X125295700Y-58551000D01*
X128748400Y-60603100D02*
X127696300Y-59551000D01*
X128308200Y-63896400D02*
X128748400Y-63456200D01*
X124924400Y-65151000D02*
X126179000Y-63896400D01*
X126179000Y-63896400D02*
X128308200Y-63896400D01*
X128748400Y-63456200D02*
X128748400Y-60603100D01*
X123376400Y-52774400D02*
X122575100Y-53575700D01*
X119089100Y-64880200D02*
X119089100Y-66636700D01*
X122575100Y-58070100D02*
X123122400Y-58617400D01*
X122575100Y-53575700D02*
X122575100Y-58070100D01*
X119089100Y-66636700D02*
X118571200Y-67154600D01*
X121217400Y-58490400D02*
X120556700Y-57829700D01*
X118571200Y-67154600D02*
X116568400Y-67154600D01*
X122575100Y-58070100D02*
X121637700Y-58070100D01*
X116557400Y-57829700D02*
X116197300Y-58189800D01*
X120556700Y-57829700D02*
X116557400Y-57829700D01*
X116197300Y-60592900D02*
X116637600Y-61033200D01*
X119181200Y-61936500D02*
X119181200Y-64788100D01*
X97783800Y-67181100D02*
X97546400Y-67181100D01*
X121637700Y-58070100D02*
X121217400Y-58490400D01*
X97863400Y-67101500D02*
X97783800Y-67181100D01*
X116568400Y-67154600D02*
X116568400Y-67448900D01*
X119181200Y-64788100D02*
X119089100Y-64880200D01*
X116518400Y-67498900D02*
X116518400Y-68650400D01*
X118277900Y-61033200D02*
X119181200Y-61936500D01*
X116568400Y-67448900D02*
X116518400Y-67498900D01*
X116637600Y-61033200D02*
X118277900Y-61033200D01*
X116197300Y-58189800D02*
X116197300Y-60592900D01*
X116568400Y-66294000D02*
X116568400Y-67154600D01*
X116518400Y-67498900D02*
X113834800Y-67498900D01*
X97546400Y-68256400D02*
X97546400Y-67181100D01*
X116518400Y-52674400D02*
X116910900Y-53066900D01*
X124177600Y-54247200D02*
X123376400Y-55048400D01*
X117154600Y-53066900D02*
X119740600Y-53066900D01*
X121696400Y-51886400D02*
X120921100Y-51886400D01*
X121696400Y-51886400D02*
X122471700Y-51886400D01*
X117154600Y-53066900D02*
X117154600Y-53440700D01*
X100975300Y-65022200D02*
X98816400Y-67181100D01*
X122636100Y-51722000D02*
X123376400Y-51722000D01*
X116910900Y-53066900D02*
X117154600Y-53066900D01*
X109383100Y-65022200D02*
X100975300Y-65022200D01*
X123376400Y-51124400D02*
X123376400Y-51722000D01*
X123545300Y-51722000D02*
X124177600Y-52354300D01*
X119740600Y-53066900D02*
X120921100Y-51886400D01*
X98816400Y-68256400D02*
X98816400Y-67181100D01*
X124177600Y-52354300D02*
X124177600Y-54247200D01*
X122471700Y-51886400D02*
X122636100Y-51722000D01*
X123376400Y-51722000D02*
X123545300Y-51722000D01*
D28*
X124421600Y-58509300D02*
X123476500Y-59454400D01*
X122163700Y-61542400D02*
X121793000Y-61913100D01*
X124421600Y-57321000D02*
X125191600Y-56551000D01*
X131953000Y-52663100D02*
X128065100Y-56551000D01*
X123476500Y-59454400D02*
X122163700Y-59454400D01*
X125218300Y-61351000D02*
X126496000Y-61351000D01*
X128065100Y-56551000D02*
X126496000Y-56551000D01*
X125191600Y-56551000D02*
X126496000Y-56551000D01*
X126496000Y-61051000D02*
X126496000Y-61351000D01*
X118942400Y-58490400D02*
X119221300Y-58490400D01*
X126496000Y-56551000D02*
X126496000Y-56251000D01*
X119221300Y-58490400D02*
X120185300Y-59454400D01*
X119249300Y-60390400D02*
X118942400Y-60390400D01*
X125164200Y-61405100D02*
X125218300Y-61351000D01*
X122163700Y-59454400D02*
X122163700Y-61542400D01*
X131953000Y-51308000D02*
X131953000Y-52663100D01*
X124421600Y-57378900D02*
X124421600Y-58509300D01*
X120185300Y-59454400D02*
X122163700Y-59454400D01*
X120185300Y-59454400D02*
X119249300Y-60390400D01*
X118815400Y-58617400D02*
X118942400Y-58490400D01*
X117026400Y-58617400D02*
X118815400Y-58617400D01*
X124421600Y-57378900D02*
X124421600Y-57321000D01*
X121793000Y-62992000D02*
X121793000Y-61913100D01*
D27*
X105166400Y-68256400D02*
X105166400Y-67181100D01*
X105166400Y-67181100D02*
X104936700Y-66951400D01*
X108121200Y-57441400D02*
X108046700Y-57441400D01*
X106436400Y-68256400D02*
X106436400Y-67181100D01*
X109921200Y-59241400D02*
X108121200Y-57441400D01*
X109921200Y-65269600D02*
X109921200Y-59241400D01*
X106436400Y-67181100D02*
X108009700Y-67181100D01*
X108009700Y-67181100D02*
X109921200Y-65269600D01*
X120921100Y-55696400D02*
X119563400Y-54338700D01*
X119563400Y-54338700D02*
X116910900Y-54338700D01*
X115430400Y-52249900D02*
X113936900Y-50756400D01*
X115430400Y-52858200D02*
X115430400Y-52249900D01*
X121696400Y-55696400D02*
X120921100Y-55696400D01*
X116910900Y-54338700D02*
X115430400Y-52858200D01*
X113936900Y-50756400D02*
X112786400Y-50756400D01*
X101539300Y-69514600D02*
X101356400Y-69331700D01*
X128333000Y-67056000D02*
X125874400Y-69514600D01*
X101356400Y-68256400D02*
X101356400Y-69331700D01*
X125874400Y-69514600D02*
X101539300Y-69514600D01*
X111516400Y-51935200D02*
X111516400Y-50756400D01*
X110246400Y-50756400D02*
X110246400Y-51831700D01*
X110171000Y-51907100D02*
X110246400Y-51831700D01*
X111516400Y-68256400D02*
X111516400Y-67181100D01*
X122445500Y-65316800D02*
X123108600Y-65316800D01*
X123108600Y-65316800D02*
X123274400Y-65151000D01*
X111516400Y-67181100D02*
X112003100Y-67181100D01*
X112003100Y-67181100D02*
X112270300Y-66913900D01*
X122994200Y-66810500D02*
X123274400Y-67090700D01*
X112786400Y-68256400D02*
X114003500Y-68256400D01*
X123274400Y-67090700D02*
X123274400Y-67691000D01*
X106436400Y-58726000D02*
X106436400Y-50756400D01*
X105861700Y-54485900D02*
X105861700Y-53123200D01*
X105861700Y-53123200D02*
X105166400Y-52427900D01*
X105166400Y-52427900D02*
X105166400Y-50756400D01*
X103896400Y-50756400D02*
X103896400Y-51831700D01*
X103896400Y-51831700D02*
X103896400Y-52329800D01*
X103896400Y-52329800D02*
X105014500Y-53447900D01*
X126683000Y-67056000D02*
X126683000Y-65406000D01*
X126683000Y-65406000D02*
X126682000Y-65405000D01*
X126467500Y-52735500D02*
X126467500Y-51085500D01*
X126466500Y-52736500D02*
X126467500Y-52735500D01*
X102626400Y-68256400D02*
X102626400Y-67181100D01*
X128117500Y-51085500D02*
X127902500Y-51085500D01*
X104124400Y-65683100D02*
X108145500Y-65683100D01*
X102626400Y-67181100D02*
X104124400Y-65683100D01*
X127902500Y-51085500D02*
X127316500Y-51671500D01*
X114036400Y-57601400D02*
X115111700Y-57601400D01*
X118393000Y-62992000D02*
X117617700Y-62992000D01*
X117617700Y-62992000D02*
X117617700Y-62753700D01*
X117617700Y-62753700D02*
X116713000Y-61849000D01*
X115111700Y-57601400D02*
X115111700Y-60247700D01*
X115111700Y-60247700D02*
X116713000Y-61849000D01*
X121494100Y-67495600D02*
X122726300Y-66263400D01*
X122726300Y-66263400D02*
X123412900Y-66263400D01*
X119634000Y-68707000D02*
X120845400Y-67495600D01*
X124024600Y-61322100D02*
X125295700Y-60051000D01*
X123412900Y-66263400D02*
X124024600Y-65651700D01*
X120845400Y-67495600D02*
X121494100Y-67495600D01*
X124024600Y-65651700D02*
X124024600Y-61322100D01*
X126496000Y-60051000D02*
X125295700Y-60051000D01*
X121475000Y-65144000D02*
X121475000Y-66294000D01*
X125295700Y-57914100D02*
X124845300Y-58364500D01*
X126496000Y-57051000D02*
X125295700Y-57051000D01*
X124845300Y-59781700D02*
X122612100Y-62014900D01*
X124845300Y-58364500D02*
X124845300Y-59781700D01*
X122612100Y-64006900D02*
X121475000Y-65144000D01*
X125295700Y-57051000D02*
X125295700Y-57914100D01*
X122612100Y-62014900D02*
X122612100Y-64006900D01*
G04 #@! TA.AperFunction,Conductor*
G36*
X131712121Y-54247002D02*
G01*
X131758614Y-54300658D01*
X131770000Y-54353000D01*
X131770000Y-55470885D01*
X131774475Y-55486124D01*
X131775865Y-55487329D01*
X131783548Y-55489000D01*
X131862657Y-55489000D01*
X131868805Y-55488699D01*
X132006603Y-55475188D01*
X132018638Y-55472805D01*
X132196076Y-55419233D01*
X132207416Y-55414559D01*
X132371077Y-55327540D01*
X132381294Y-55320751D01*
X132524933Y-55203603D01*
X132533632Y-55194963D01*
X132618415Y-55092479D01*
X132677249Y-55052741D01*
X132748227Y-55051119D01*
X132808815Y-55088129D01*
X132839775Y-55152019D01*
X132841500Y-55172795D01*
X132841500Y-62429928D01*
X132821498Y-62498049D01*
X132767842Y-62544542D01*
X132697568Y-62554646D01*
X132632988Y-62525152D01*
X132617303Y-62508880D01*
X132543532Y-62417127D01*
X132534954Y-62408368D01*
X132392961Y-62289222D01*
X132382841Y-62282292D01*
X132220415Y-62192998D01*
X132209142Y-62188166D01*
X132032462Y-62132120D01*
X132020468Y-62129570D01*
X131876239Y-62113393D01*
X131869215Y-62113000D01*
X131788115Y-62113000D01*
X131772876Y-62117475D01*
X131771671Y-62118865D01*
X131770000Y-62126548D01*
X131770000Y-64110885D01*
X131774475Y-64126124D01*
X131775865Y-64127329D01*
X131783548Y-64129000D01*
X131862657Y-64129000D01*
X131868805Y-64128699D01*
X132006603Y-64115188D01*
X132018638Y-64112805D01*
X132196076Y-64059233D01*
X132207416Y-64054559D01*
X132371077Y-63967540D01*
X132381294Y-63960751D01*
X132524933Y-63843603D01*
X132533632Y-63834963D01*
X132618415Y-63732479D01*
X132677249Y-63692741D01*
X132748227Y-63691119D01*
X132808815Y-63728129D01*
X132839775Y-63792019D01*
X132841500Y-63812795D01*
X132841500Y-66474520D01*
X132821498Y-66542641D01*
X132804595Y-66563615D01*
X132325022Y-67043188D01*
X132317408Y-67057132D01*
X132317539Y-67058965D01*
X132321790Y-67065580D01*
X132804595Y-67548385D01*
X132838621Y-67610697D01*
X132841500Y-67637480D01*
X132841500Y-68530633D01*
X132840000Y-68550018D01*
X132836309Y-68573724D01*
X132837473Y-68582626D01*
X132837750Y-68584746D01*
X132838207Y-68613431D01*
X132832192Y-68674500D01*
X132828084Y-68716212D01*
X132823267Y-68740432D01*
X132787134Y-68859546D01*
X132777685Y-68882355D01*
X132719013Y-68992124D01*
X132705295Y-69012655D01*
X132626329Y-69108876D01*
X132608876Y-69126329D01*
X132512655Y-69205295D01*
X132492124Y-69219013D01*
X132382355Y-69277685D01*
X132359546Y-69287134D01*
X132240432Y-69323267D01*
X132216211Y-69328084D01*
X132120191Y-69337541D01*
X132104132Y-69337091D01*
X132104123Y-69337800D01*
X132095147Y-69337690D01*
X132086276Y-69336309D01*
X132077374Y-69337473D01*
X132077372Y-69337473D01*
X132064856Y-69339110D01*
X132054714Y-69340436D01*
X132038379Y-69341500D01*
X127247594Y-69341500D01*
X127179473Y-69321498D01*
X127132980Y-69267842D01*
X127122876Y-69197568D01*
X127152370Y-69132988D01*
X127158499Y-69126405D01*
X128208499Y-68076405D01*
X128270811Y-68042379D01*
X128297594Y-68039500D01*
X128571614Y-68039499D01*
X128589634Y-68039499D01*
X128592492Y-68039236D01*
X128592501Y-68039236D01*
X128631823Y-68035623D01*
X128663062Y-68032753D01*
X128685654Y-68025673D01*
X128819450Y-67983744D01*
X128819452Y-67983743D01*
X128826699Y-67981472D01*
X128919728Y-67925132D01*
X131448698Y-67925132D01*
X131453607Y-67931690D01*
X131542118Y-67981157D01*
X131553357Y-67986067D01*
X131729641Y-68043345D01*
X131741615Y-68045978D01*
X131925676Y-68067926D01*
X131937925Y-68068183D01*
X132122742Y-68053962D01*
X132134822Y-68051831D01*
X132313345Y-68001986D01*
X132324778Y-67997552D01*
X132448507Y-67935052D01*
X132458791Y-67925407D01*
X132456553Y-67918763D01*
X131965812Y-67428022D01*
X131951868Y-67420408D01*
X131950035Y-67420539D01*
X131943420Y-67424790D01*
X131455458Y-67912752D01*
X131448698Y-67925132D01*
X128919728Y-67925132D01*
X128973381Y-67892639D01*
X129094639Y-67771381D01*
X129183472Y-67624699D01*
X129203288Y-67561468D01*
X129207387Y-67548385D01*
X129234753Y-67461062D01*
X129241500Y-67387635D01*
X129241499Y-67048002D01*
X130940738Y-67048002D01*
X130956248Y-67232705D01*
X130958461Y-67244764D01*
X131009554Y-67422945D01*
X131014066Y-67434342D01*
X131074148Y-67551250D01*
X131083865Y-67561468D01*
X131090666Y-67559124D01*
X131580978Y-67068812D01*
X131588592Y-67054868D01*
X131588461Y-67053035D01*
X131584210Y-67046420D01*
X131096121Y-66558331D01*
X131083741Y-66551571D01*
X131077353Y-66556353D01*
X131024997Y-66651586D01*
X131020166Y-66662858D01*
X130964120Y-66839538D01*
X130961570Y-66851532D01*
X130940909Y-67035733D01*
X130940738Y-67048002D01*
X129241499Y-67048002D01*
X129241499Y-66724366D01*
X129240798Y-66716730D01*
X129237974Y-66685996D01*
X129234753Y-66650938D01*
X129214397Y-66585982D01*
X129185744Y-66494550D01*
X129185743Y-66494548D01*
X129183472Y-66487301D01*
X129094639Y-66340619D01*
X129048461Y-66294441D01*
X129014435Y-66232129D01*
X129017656Y-66187101D01*
X131447820Y-66187101D01*
X131450274Y-66194064D01*
X131940188Y-66683978D01*
X131954132Y-66691592D01*
X131955965Y-66691461D01*
X131962580Y-66687210D01*
X132450834Y-66198956D01*
X132457594Y-66186576D01*
X132452935Y-66180353D01*
X132350924Y-66125196D01*
X132339619Y-66120444D01*
X132162554Y-66065633D01*
X132150541Y-66063167D01*
X131966199Y-66043792D01*
X131953931Y-66043707D01*
X131769345Y-66060505D01*
X131757296Y-66062803D01*
X131579483Y-66115137D01*
X131568108Y-66119732D01*
X131457969Y-66177312D01*
X131447820Y-66187101D01*
X129017656Y-66187101D01*
X129019500Y-66161314D01*
X129041676Y-66126784D01*
X129040260Y-66125666D01*
X129053810Y-66108509D01*
X129135053Y-65976709D01*
X129141197Y-65963532D01*
X129190079Y-65816157D01*
X129192945Y-65802790D01*
X129202173Y-65712720D01*
X129202500Y-65706315D01*
X129202500Y-65677115D01*
X129198025Y-65661876D01*
X129196635Y-65660671D01*
X129188952Y-65659000D01*
X128129000Y-65659000D01*
X128060879Y-65638998D01*
X128014386Y-65585342D01*
X128003000Y-65533000D01*
X128003000Y-65277000D01*
X128023002Y-65208879D01*
X128076658Y-65162386D01*
X128129000Y-65151000D01*
X129184385Y-65151000D01*
X129199624Y-65146525D01*
X129200829Y-65145135D01*
X129202500Y-65137452D01*
X129202500Y-65103734D01*
X129202163Y-65097218D01*
X129192696Y-65005979D01*
X129189803Y-64992583D01*
X129140670Y-64845313D01*
X129134497Y-64832136D01*
X129131941Y-64828005D01*
X129113106Y-64759553D01*
X129134270Y-64691784D01*
X129149993Y-64672611D01*
X129616547Y-64206057D01*
X129624837Y-64198513D01*
X129631318Y-64194400D01*
X129677959Y-64144732D01*
X129680713Y-64141891D01*
X129700434Y-64122170D01*
X129702912Y-64118975D01*
X129710618Y-64109953D01*
X129735458Y-64083501D01*
X129740886Y-64077721D01*
X129750646Y-64059968D01*
X129761499Y-64043445D01*
X129769053Y-64033706D01*
X129773913Y-64027441D01*
X129791476Y-63986857D01*
X129796683Y-63976227D01*
X129817995Y-63937460D01*
X129819966Y-63929783D01*
X129819968Y-63929778D01*
X129823032Y-63917842D01*
X129829438Y-63899130D01*
X129834333Y-63887819D01*
X129837481Y-63880545D01*
X129838721Y-63872717D01*
X129838723Y-63872710D01*
X129844399Y-63836876D01*
X129846805Y-63825256D01*
X129855828Y-63790111D01*
X129855828Y-63790110D01*
X129857800Y-63782430D01*
X129857800Y-63762176D01*
X129859351Y-63742465D01*
X129861280Y-63730286D01*
X129862520Y-63722457D01*
X129858359Y-63678438D01*
X129857800Y-63666581D01*
X129857800Y-63386768D01*
X130243425Y-63386768D01*
X130275138Y-63494521D01*
X130279731Y-63505889D01*
X130365607Y-63670154D01*
X130372321Y-63680415D01*
X130488468Y-63824873D01*
X130497046Y-63833632D01*
X130639039Y-63952778D01*
X130649159Y-63959708D01*
X130811585Y-64049002D01*
X130822858Y-64053834D01*
X130999538Y-64109880D01*
X131011532Y-64112430D01*
X131155761Y-64128607D01*
X131162785Y-64129000D01*
X131243885Y-64129000D01*
X131259124Y-64124525D01*
X131260329Y-64123135D01*
X131262000Y-64115452D01*
X131262000Y-63393115D01*
X131257525Y-63377876D01*
X131256135Y-63376671D01*
X131248452Y-63375000D01*
X130258076Y-63375000D01*
X130244545Y-63378973D01*
X130243425Y-63386768D01*
X129857800Y-63386768D01*
X129857800Y-62863795D01*
X130244544Y-62863795D01*
X130251299Y-62867000D01*
X131243885Y-62867000D01*
X131259124Y-62862525D01*
X131260329Y-62861135D01*
X131262000Y-62853452D01*
X131262000Y-62131115D01*
X131257525Y-62115876D01*
X131256135Y-62114671D01*
X131248452Y-62113000D01*
X131169343Y-62113000D01*
X131163195Y-62113301D01*
X131025397Y-62126812D01*
X131013362Y-62129195D01*
X130835924Y-62182767D01*
X130824584Y-62187441D01*
X130660923Y-62274460D01*
X130650706Y-62281249D01*
X130507067Y-62398397D01*
X130498363Y-62407041D01*
X130380216Y-62549856D01*
X130373356Y-62560027D01*
X130285196Y-62723076D01*
X130280444Y-62734381D01*
X130244750Y-62849692D01*
X130244544Y-62863795D01*
X129857800Y-62863795D01*
X129857800Y-60520667D01*
X129858327Y-60509484D01*
X129860002Y-60501991D01*
X129857862Y-60433914D01*
X129857800Y-60429955D01*
X129857800Y-60402044D01*
X129857295Y-60398044D01*
X129856362Y-60386201D01*
X129855222Y-60349929D01*
X129854973Y-60342010D01*
X129849322Y-60322558D01*
X129845314Y-60303206D01*
X129843767Y-60290963D01*
X129842774Y-60283103D01*
X129839856Y-60275732D01*
X129826500Y-60241997D01*
X129822655Y-60230770D01*
X129822021Y-60228587D01*
X129810318Y-60188307D01*
X129806284Y-60181485D01*
X129806281Y-60181479D01*
X129800006Y-60170868D01*
X129791310Y-60153118D01*
X129786772Y-60141656D01*
X129786769Y-60141651D01*
X129783852Y-60134283D01*
X129757873Y-60098525D01*
X129751357Y-60088607D01*
X129732875Y-60057357D01*
X129728842Y-60050537D01*
X129714518Y-60036213D01*
X129701676Y-60021178D01*
X129689772Y-60004793D01*
X129655706Y-59976611D01*
X129646927Y-59968622D01*
X128366705Y-58688400D01*
X128332679Y-58626088D01*
X128329800Y-58599305D01*
X128329800Y-58122793D01*
X128332032Y-58099184D01*
X128332090Y-58098881D01*
X128332090Y-58098877D01*
X128333575Y-58091094D01*
X128330049Y-58035049D01*
X128329800Y-58027138D01*
X128329800Y-58011144D01*
X128327794Y-57995270D01*
X128327051Y-57987402D01*
X128324023Y-57939263D01*
X128324023Y-57939262D01*
X128323525Y-57931350D01*
X128320979Y-57923513D01*
X128315806Y-57900369D01*
X128315768Y-57900065D01*
X128315767Y-57900060D01*
X128314774Y-57892203D01*
X128311858Y-57884838D01*
X128311857Y-57884834D01*
X128294101Y-57839989D01*
X128291429Y-57832570D01*
X128274064Y-57779125D01*
X128269814Y-57772428D01*
X128269650Y-57772169D01*
X128258885Y-57751042D01*
X128258771Y-57750754D01*
X128258768Y-57750749D01*
X128255852Y-57743383D01*
X128251196Y-57736975D01*
X128251193Y-57736969D01*
X128222842Y-57697948D01*
X128218392Y-57691401D01*
X128188300Y-57643982D01*
X128182293Y-57638341D01*
X128166612Y-57620554D01*
X128166434Y-57620309D01*
X128166432Y-57620307D01*
X128161772Y-57613893D01*
X128141141Y-57596825D01*
X128118504Y-57578097D01*
X128112570Y-57572866D01*
X128077402Y-57539842D01*
X128077399Y-57539840D01*
X128071621Y-57534414D01*
X128064397Y-57530442D01*
X128044794Y-57517119D01*
X128044554Y-57516920D01*
X128044547Y-57516916D01*
X128038444Y-57511867D01*
X127998900Y-57493259D01*
X127987624Y-57487953D01*
X127980571Y-57484359D01*
X127944799Y-57464693D01*
X127894740Y-57414348D01*
X127880854Y-57359618D01*
X127879684Y-57359681D01*
X127879500Y-57356282D01*
X127879500Y-57352866D01*
X127875344Y-57314606D01*
X127875344Y-57287393D01*
X127877535Y-57267228D01*
X127879500Y-57249134D01*
X127880990Y-57249296D01*
X127902633Y-57187984D01*
X127958709Y-57144440D01*
X128004819Y-57135700D01*
X128018522Y-57135700D01*
X128034969Y-57136778D01*
X128065100Y-57140745D01*
X128103419Y-57135700D01*
X128103424Y-57135700D01*
X128209549Y-57121728D01*
X128217737Y-57120650D01*
X128318313Y-57078990D01*
X128359973Y-57061734D01*
X128418091Y-57017138D01*
X128482113Y-56968013D01*
X128487139Y-56961463D01*
X128487143Y-56961459D01*
X128500623Y-56943891D01*
X128511491Y-56931499D01*
X130286506Y-55156484D01*
X130348818Y-55122458D01*
X130419633Y-55127523D01*
X130473799Y-55166628D01*
X130488469Y-55184875D01*
X130497046Y-55193632D01*
X130639039Y-55312778D01*
X130649159Y-55319708D01*
X130811585Y-55409002D01*
X130822858Y-55413834D01*
X130999538Y-55469880D01*
X131011532Y-55472430D01*
X131155761Y-55488607D01*
X131162785Y-55489000D01*
X131243885Y-55489000D01*
X131259124Y-55484525D01*
X131260329Y-55483135D01*
X131262000Y-55475452D01*
X131262000Y-54353000D01*
X131282002Y-54284879D01*
X131335658Y-54238386D01*
X131388000Y-54227000D01*
X131644000Y-54227000D01*
X131712121Y-54247002D01*
G37*
G04 #@! TD.AperFunction*
G04 #@! TA.AperFunction,Conductor*
G36*
X122386773Y-68216321D02*
G01*
X122422843Y-68260356D01*
X122423928Y-68259699D01*
X122512761Y-68406381D01*
X122634019Y-68527639D01*
X122780701Y-68616472D01*
X122787948Y-68618743D01*
X122787950Y-68618744D01*
X122839396Y-68634866D01*
X122898418Y-68674324D01*
X122926738Y-68739427D01*
X122915365Y-68809507D01*
X122867909Y-68862313D01*
X122801717Y-68881100D01*
X121156000Y-68881100D01*
X121087879Y-68861098D01*
X121041386Y-68807442D01*
X121030000Y-68755100D01*
X121030000Y-68579000D01*
X121050002Y-68510879D01*
X121103658Y-68464386D01*
X121156000Y-68453000D01*
X122173884Y-68453000D01*
X122189123Y-68448525D01*
X122190328Y-68447135D01*
X122191999Y-68439452D01*
X122191999Y-68378295D01*
X122191735Y-68372527D01*
X122187848Y-68330225D01*
X122201533Y-68260560D01*
X122250709Y-68209352D01*
X122319764Y-68192861D01*
X122386773Y-68216321D01*
G37*
G04 #@! TD.AperFunction*
G04 #@! TA.AperFunction,Conductor*
G36*
X96472521Y-50522402D02*
G01*
X96519014Y-50576058D01*
X96530400Y-50628400D01*
X96530400Y-51996284D01*
X96534875Y-52011523D01*
X96536265Y-52012728D01*
X96543948Y-52014399D01*
X96771069Y-52014399D01*
X96777890Y-52014029D01*
X96828752Y-52008505D01*
X96844000Y-52004880D01*
X96866457Y-51996461D01*
X96937264Y-51991278D01*
X96954910Y-51996458D01*
X96986084Y-52008145D01*
X97048266Y-52014900D01*
X98044534Y-52014900D01*
X98106716Y-52008145D01*
X98137171Y-51996728D01*
X98207977Y-51991545D01*
X98225624Y-51996726D01*
X98256084Y-52008145D01*
X98318266Y-52014900D01*
X99314534Y-52014900D01*
X99376716Y-52008145D01*
X99407171Y-51996728D01*
X99477977Y-51991545D01*
X99495624Y-51996726D01*
X99526084Y-52008145D01*
X99588266Y-52014900D01*
X100584534Y-52014900D01*
X100646716Y-52008145D01*
X100677171Y-51996728D01*
X100747977Y-51991545D01*
X100765624Y-51996726D01*
X100796084Y-52008145D01*
X100858266Y-52014900D01*
X101854534Y-52014900D01*
X101916716Y-52008145D01*
X101947171Y-51996728D01*
X102017977Y-51991545D01*
X102035624Y-51996726D01*
X102066084Y-52008145D01*
X102128266Y-52014900D01*
X103124534Y-52014900D01*
X103127920Y-52014532D01*
X103130083Y-52014415D01*
X103199186Y-52030702D01*
X103248514Y-52081764D01*
X103262900Y-52140230D01*
X103262900Y-52251033D01*
X103262373Y-52262216D01*
X103260698Y-52269709D01*
X103260947Y-52277635D01*
X103260947Y-52277636D01*
X103262838Y-52337786D01*
X103262900Y-52341745D01*
X103262900Y-52369656D01*
X103263397Y-52373590D01*
X103263397Y-52373591D01*
X103263405Y-52373656D01*
X103264338Y-52385493D01*
X103265727Y-52429689D01*
X103271378Y-52449139D01*
X103275387Y-52468500D01*
X103277926Y-52488597D01*
X103280845Y-52495968D01*
X103280845Y-52495970D01*
X103294204Y-52529712D01*
X103298049Y-52540942D01*
X103308001Y-52575198D01*
X103310382Y-52583393D01*
X103314415Y-52590212D01*
X103314417Y-52590217D01*
X103320693Y-52600828D01*
X103329388Y-52618576D01*
X103336848Y-52637417D01*
X103341510Y-52643833D01*
X103341510Y-52643834D01*
X103362836Y-52673187D01*
X103369352Y-52683107D01*
X103391858Y-52721162D01*
X103406179Y-52735483D01*
X103419019Y-52750516D01*
X103430928Y-52766907D01*
X103437034Y-52771958D01*
X103465005Y-52795098D01*
X103473784Y-52803088D01*
X104321960Y-53651264D01*
X104351191Y-53697058D01*
X104375973Y-53764779D01*
X104375975Y-53764783D01*
X104378585Y-53771915D01*
X104382822Y-53778221D01*
X104382824Y-53778224D01*
X104423062Y-53838104D01*
X104474230Y-53914249D01*
X104601065Y-54029660D01*
X104751768Y-54111485D01*
X104917639Y-54155001D01*
X105049761Y-54157076D01*
X105117559Y-54178145D01*
X105163203Y-54232524D01*
X105172203Y-54302948D01*
X105171810Y-54304839D01*
X105170418Y-54308409D01*
X105160772Y-54381676D01*
X105150114Y-54462638D01*
X105148035Y-54478426D01*
X105154842Y-54540079D01*
X105161025Y-54596083D01*
X105166853Y-54648875D01*
X105169462Y-54656006D01*
X105169463Y-54656008D01*
X105192502Y-54718964D01*
X105225785Y-54809915D01*
X105230022Y-54816221D01*
X105230024Y-54816224D01*
X105256273Y-54855286D01*
X105321430Y-54952249D01*
X105448265Y-55067660D01*
X105598968Y-55149485D01*
X105663943Y-55166531D01*
X105708874Y-55178319D01*
X105769689Y-55214953D01*
X105801044Y-55278651D01*
X105802900Y-55300195D01*
X105802900Y-58376612D01*
X105794293Y-58422382D01*
X105745118Y-58548509D01*
X105744126Y-58556044D01*
X105742459Y-58562537D01*
X105706146Y-58623544D01*
X105655914Y-58652100D01*
X105653276Y-58652875D01*
X105652071Y-58654265D01*
X105650400Y-58661948D01*
X105650400Y-59334285D01*
X105654875Y-59349524D01*
X105656265Y-59350729D01*
X105663948Y-59352400D01*
X106073182Y-59352400D01*
X106133303Y-59367669D01*
X106173668Y-59389585D01*
X106339539Y-59433101D01*
X106426986Y-59434474D01*
X106503403Y-59435675D01*
X106503406Y-59435675D01*
X106511002Y-59435794D01*
X106518406Y-59434098D01*
X106518408Y-59434098D01*
X106581246Y-59419706D01*
X106678159Y-59397510D01*
X106831358Y-59320459D01*
X106837129Y-59315530D01*
X106837132Y-59315528D01*
X106955978Y-59214023D01*
X106961755Y-59209089D01*
X107061824Y-59069830D01*
X107125785Y-58910720D01*
X107140932Y-58804293D01*
X107149366Y-58745031D01*
X107149366Y-58745027D01*
X107149947Y-58740947D01*
X107150104Y-58726000D01*
X107145554Y-58688400D01*
X107130415Y-58563299D01*
X107130414Y-58563296D01*
X107129502Y-58555758D01*
X107078034Y-58419551D01*
X107069900Y-58375013D01*
X107069900Y-52140230D01*
X107089902Y-52072109D01*
X107143558Y-52025616D01*
X107202717Y-52014415D01*
X107204880Y-52014532D01*
X107208266Y-52014900D01*
X108204534Y-52014900D01*
X108266716Y-52008145D01*
X108297171Y-51996728D01*
X108367977Y-51991545D01*
X108385624Y-51996726D01*
X108416084Y-52008145D01*
X108478266Y-52014900D01*
X109367899Y-52014900D01*
X109436020Y-52034902D01*
X109482513Y-52088558D01*
X109486225Y-52097599D01*
X109496024Y-52124376D01*
X109535085Y-52231115D01*
X109539322Y-52237421D01*
X109539324Y-52237424D01*
X109566346Y-52277636D01*
X109630730Y-52373449D01*
X109757565Y-52488860D01*
X109908268Y-52570685D01*
X110074139Y-52614201D01*
X110161586Y-52615574D01*
X110238003Y-52616775D01*
X110238006Y-52616775D01*
X110245602Y-52616894D01*
X110253006Y-52615198D01*
X110253008Y-52615198D01*
X110340489Y-52595162D01*
X110412759Y-52578610D01*
X110565958Y-52501559D01*
X110571729Y-52496630D01*
X110571732Y-52496628D01*
X110690578Y-52395123D01*
X110696355Y-52390189D01*
X110731196Y-52341703D01*
X110787191Y-52298056D01*
X110857894Y-52291610D01*
X110920858Y-52324413D01*
X110938098Y-52344952D01*
X110976130Y-52401549D01*
X111007970Y-52430521D01*
X111086040Y-52501559D01*
X111102965Y-52516960D01*
X111253668Y-52598785D01*
X111419539Y-52642301D01*
X111506986Y-52643674D01*
X111583403Y-52644875D01*
X111583406Y-52644875D01*
X111591002Y-52644994D01*
X111598406Y-52643298D01*
X111598408Y-52643298D01*
X111713693Y-52616894D01*
X111758159Y-52606710D01*
X111911358Y-52529659D01*
X111917129Y-52524730D01*
X111917132Y-52524728D01*
X112035978Y-52423223D01*
X112041755Y-52418289D01*
X112119204Y-52310509D01*
X112137392Y-52285198D01*
X112137393Y-52285197D01*
X112141824Y-52279030D01*
X112159541Y-52234958D01*
X112202952Y-52126968D01*
X112202952Y-52126966D01*
X112205785Y-52119920D01*
X112206856Y-52112396D01*
X112207955Y-52108293D01*
X112244905Y-52047669D01*
X112308764Y-52016645D01*
X112329663Y-52014900D01*
X112651900Y-52014900D01*
X112720021Y-52034902D01*
X112766514Y-52088558D01*
X112777900Y-52140900D01*
X112777900Y-53019534D01*
X112784655Y-53081716D01*
X112796072Y-53112171D01*
X112801255Y-53182977D01*
X112796074Y-53200624D01*
X112784655Y-53231084D01*
X112777900Y-53293266D01*
X112777900Y-54289534D01*
X112784655Y-54351716D01*
X112796072Y-54382171D01*
X112801255Y-54452977D01*
X112796074Y-54470624D01*
X112784655Y-54501084D01*
X112777900Y-54563266D01*
X112777900Y-55559534D01*
X112784655Y-55621716D01*
X112796072Y-55652171D01*
X112801255Y-55722977D01*
X112796074Y-55740624D01*
X112784655Y-55771084D01*
X112777900Y-55833266D01*
X112777900Y-56829534D01*
X112784655Y-56891716D01*
X112796072Y-56922171D01*
X112801255Y-56992977D01*
X112796074Y-57010624D01*
X112784655Y-57041084D01*
X112777900Y-57103266D01*
X112777900Y-58099534D01*
X112784655Y-58161716D01*
X112796072Y-58192171D01*
X112801255Y-58262977D01*
X112796074Y-58280624D01*
X112784655Y-58311084D01*
X112777900Y-58373266D01*
X112777900Y-59369534D01*
X112784655Y-59431716D01*
X112796072Y-59462171D01*
X112801255Y-59532977D01*
X112796074Y-59550624D01*
X112784655Y-59581084D01*
X112777900Y-59643266D01*
X112777900Y-60639534D01*
X112784655Y-60701716D01*
X112796072Y-60732171D01*
X112801255Y-60802977D01*
X112796074Y-60820624D01*
X112784655Y-60851084D01*
X112777900Y-60913266D01*
X112777900Y-61909534D01*
X112784655Y-61971716D01*
X112796072Y-62002171D01*
X112801255Y-62072977D01*
X112796074Y-62090624D01*
X112784655Y-62121084D01*
X112777900Y-62183266D01*
X112777900Y-63179534D01*
X112784655Y-63241716D01*
X112796072Y-63272171D01*
X112801255Y-63342977D01*
X112796074Y-63360624D01*
X112784655Y-63391084D01*
X112777900Y-63453266D01*
X112777900Y-64449534D01*
X112784655Y-64511716D01*
X112796072Y-64542171D01*
X112801255Y-64612977D01*
X112796074Y-64630624D01*
X112784655Y-64661084D01*
X112777900Y-64723266D01*
X112777900Y-65719534D01*
X112784655Y-65781716D01*
X112796072Y-65812171D01*
X112801255Y-65882977D01*
X112796074Y-65900624D01*
X112784655Y-65931084D01*
X112777900Y-65993266D01*
X112777900Y-66171653D01*
X112757898Y-66239774D01*
X112704242Y-66286267D01*
X112633968Y-66296371D01*
X112592941Y-66283007D01*
X112532781Y-66251154D01*
X112532782Y-66251154D01*
X112526069Y-66247600D01*
X112508496Y-66243186D01*
X112367122Y-66207675D01*
X112367118Y-66207675D01*
X112359751Y-66205824D01*
X112352152Y-66205784D01*
X112352150Y-66205784D01*
X112280694Y-66205410D01*
X112188269Y-66204926D01*
X112180889Y-66206698D01*
X112180887Y-66206698D01*
X112028902Y-66243186D01*
X112028898Y-66243187D01*
X112021523Y-66244958D01*
X111869139Y-66323609D01*
X111863420Y-66328598D01*
X111856322Y-66334790D01*
X111739915Y-66436339D01*
X111735548Y-66442553D01*
X111699354Y-66494051D01*
X111643819Y-66538283D01*
X111596267Y-66547600D01*
X111588193Y-66547600D01*
X111564584Y-66545368D01*
X111564281Y-66545310D01*
X111564277Y-66545310D01*
X111556494Y-66543825D01*
X111500449Y-66547351D01*
X111492538Y-66547600D01*
X111476544Y-66547600D01*
X111460670Y-66549606D01*
X111452810Y-66550348D01*
X111425351Y-66552076D01*
X111404663Y-66553377D01*
X111404662Y-66553377D01*
X111396750Y-66553875D01*
X111389209Y-66556325D01*
X111388913Y-66556421D01*
X111365769Y-66561594D01*
X111365465Y-66561632D01*
X111365460Y-66561633D01*
X111357603Y-66562626D01*
X111350238Y-66565542D01*
X111350234Y-66565543D01*
X111305389Y-66583299D01*
X111297970Y-66585971D01*
X111244525Y-66603336D01*
X111237829Y-66607586D01*
X111237828Y-66607586D01*
X111237569Y-66607750D01*
X111216442Y-66618515D01*
X111216154Y-66618629D01*
X111216149Y-66618632D01*
X111208783Y-66621548D01*
X111202375Y-66626204D01*
X111202369Y-66626207D01*
X111163348Y-66654558D01*
X111156811Y-66659001D01*
X111109382Y-66689100D01*
X111103957Y-66694877D01*
X111103955Y-66694879D01*
X111103741Y-66695107D01*
X111085954Y-66710788D01*
X111085709Y-66710966D01*
X111085707Y-66710968D01*
X111079293Y-66715628D01*
X111074239Y-66721737D01*
X111074238Y-66721738D01*
X111043497Y-66758896D01*
X111038266Y-66764830D01*
X111005242Y-66799998D01*
X111005241Y-66800000D01*
X110999814Y-66805779D01*
X110995994Y-66812728D01*
X110995845Y-66812999D01*
X110982519Y-66832606D01*
X110982320Y-66832846D01*
X110982316Y-66832853D01*
X110977267Y-66838956D01*
X110965797Y-66863332D01*
X110953353Y-66889776D01*
X110949764Y-66896820D01*
X110926243Y-66939605D01*
X110875899Y-66989663D01*
X110802222Y-67004167D01*
X110744534Y-66997900D01*
X109748266Y-66997900D01*
X109686084Y-67004655D01*
X109655629Y-67016072D01*
X109584823Y-67021255D01*
X109567176Y-67016074D01*
X109536716Y-67004655D01*
X109474534Y-66997900D01*
X109392994Y-66997900D01*
X109324873Y-66977898D01*
X109278380Y-66924242D01*
X109268276Y-66853968D01*
X109297770Y-66789388D01*
X109303899Y-66782805D01*
X110313447Y-65773257D01*
X110321737Y-65765713D01*
X110328218Y-65761600D01*
X110374859Y-65711932D01*
X110377613Y-65709091D01*
X110397334Y-65689370D01*
X110399812Y-65686175D01*
X110407518Y-65677153D01*
X110432358Y-65650701D01*
X110437786Y-65644921D01*
X110447546Y-65627168D01*
X110458399Y-65610645D01*
X110465953Y-65600906D01*
X110470813Y-65594641D01*
X110488376Y-65554057D01*
X110493583Y-65543427D01*
X110514895Y-65504660D01*
X110516866Y-65496983D01*
X110516868Y-65496978D01*
X110519932Y-65485042D01*
X110526338Y-65466330D01*
X110526807Y-65465248D01*
X110534381Y-65447745D01*
X110535621Y-65439917D01*
X110535623Y-65439910D01*
X110541299Y-65404076D01*
X110543705Y-65392456D01*
X110552728Y-65357311D01*
X110552728Y-65357310D01*
X110554700Y-65349630D01*
X110554700Y-65329376D01*
X110556251Y-65309665D01*
X110558180Y-65297486D01*
X110559420Y-65289657D01*
X110555259Y-65245638D01*
X110554700Y-65233781D01*
X110554700Y-59320163D01*
X110555227Y-59308979D01*
X110556901Y-59301491D01*
X110554762Y-59233432D01*
X110554700Y-59229475D01*
X110554700Y-59201544D01*
X110554194Y-59197538D01*
X110553261Y-59185692D01*
X110552122Y-59149437D01*
X110551873Y-59141510D01*
X110546222Y-59122058D01*
X110542214Y-59102706D01*
X110540668Y-59090468D01*
X110540667Y-59090466D01*
X110539674Y-59082603D01*
X110523394Y-59041486D01*
X110519559Y-59030285D01*
X110507218Y-58987806D01*
X110503185Y-58980987D01*
X110503183Y-58980982D01*
X110496907Y-58970371D01*
X110488210Y-58952621D01*
X110480752Y-58933783D01*
X110469114Y-58917764D01*
X110454772Y-58898025D01*
X110448253Y-58888101D01*
X110429778Y-58856860D01*
X110429774Y-58856855D01*
X110425742Y-58850037D01*
X110411418Y-58835713D01*
X110398576Y-58820678D01*
X110386672Y-58804293D01*
X110352606Y-58776111D01*
X110343827Y-58768122D01*
X108671416Y-57095711D01*
X108656671Y-57077983D01*
X108654554Y-57074902D01*
X108614854Y-57017139D01*
X108586359Y-56975678D01*
X108586358Y-56975676D01*
X108582057Y-56969419D01*
X108576386Y-56964366D01*
X108459693Y-56860396D01*
X108459690Y-56860394D01*
X108454021Y-56855343D01*
X108446025Y-56851109D01*
X108336474Y-56793105D01*
X108302469Y-56775100D01*
X108284896Y-56770686D01*
X108143522Y-56735175D01*
X108143518Y-56735175D01*
X108136151Y-56733324D01*
X108128552Y-56733284D01*
X108128550Y-56733284D01*
X108057094Y-56732910D01*
X107964669Y-56732426D01*
X107957289Y-56734198D01*
X107957287Y-56734198D01*
X107805302Y-56770686D01*
X107805298Y-56770687D01*
X107797923Y-56772458D01*
X107645539Y-56851109D01*
X107516315Y-56963839D01*
X107417710Y-57104139D01*
X107405405Y-57135700D01*
X107359284Y-57253994D01*
X107355418Y-57263909D01*
X107354426Y-57271442D01*
X107354426Y-57271443D01*
X107334182Y-57425214D01*
X107333035Y-57433926D01*
X107338603Y-57484359D01*
X107349327Y-57581491D01*
X107351853Y-57604375D01*
X107354462Y-57611506D01*
X107354463Y-57611508D01*
X107371806Y-57658900D01*
X107410785Y-57765415D01*
X107415022Y-57771721D01*
X107415024Y-57771724D01*
X107455891Y-57832539D01*
X107506430Y-57907749D01*
X107569848Y-57965455D01*
X107620060Y-58011144D01*
X107633265Y-58023160D01*
X107783968Y-58104985D01*
X107893198Y-58133641D01*
X107950318Y-58166422D01*
X109250795Y-59466899D01*
X109284821Y-59529211D01*
X109287700Y-59555994D01*
X109287700Y-64217105D01*
X109267698Y-64285226D01*
X109214042Y-64331719D01*
X109191113Y-64339624D01*
X109147348Y-64350131D01*
X109134323Y-64353258D01*
X109100914Y-64370502D01*
X109092846Y-64374666D01*
X109035056Y-64388700D01*
X101054068Y-64388700D01*
X101042885Y-64388173D01*
X101035392Y-64386498D01*
X101027466Y-64386747D01*
X101027465Y-64386747D01*
X100967302Y-64388638D01*
X100963344Y-64388700D01*
X100935444Y-64388700D01*
X100931454Y-64389204D01*
X100919620Y-64390136D01*
X100875411Y-64391526D01*
X100867795Y-64393739D01*
X100867793Y-64393739D01*
X100855952Y-64397179D01*
X100836593Y-64401188D01*
X100835283Y-64401354D01*
X100816503Y-64403726D01*
X100809137Y-64406642D01*
X100809131Y-64406644D01*
X100775398Y-64420000D01*
X100764168Y-64423845D01*
X100729317Y-64433970D01*
X100721707Y-64436181D01*
X100714884Y-64440216D01*
X100704266Y-64446495D01*
X100686513Y-64455192D01*
X100678868Y-64458219D01*
X100667683Y-64462648D01*
X100661268Y-64467309D01*
X100631912Y-64488637D01*
X100621995Y-64495151D01*
X100583938Y-64517658D01*
X100569617Y-64531979D01*
X100554584Y-64544819D01*
X100538193Y-64556728D01*
X100533142Y-64562834D01*
X100510002Y-64590805D01*
X100502012Y-64599584D01*
X98521636Y-66579959D01*
X98459324Y-66613985D01*
X98388508Y-66608920D01*
X98348724Y-66584941D01*
X98270721Y-66515443D01*
X98262725Y-66511209D01*
X98192145Y-66473839D01*
X98119169Y-66435200D01*
X98108651Y-66432558D01*
X97960222Y-66395275D01*
X97960218Y-66395275D01*
X97952851Y-66393424D01*
X97945252Y-66393384D01*
X97945250Y-66393384D01*
X97873794Y-66393010D01*
X97781369Y-66392526D01*
X97773989Y-66394298D01*
X97773987Y-66394298D01*
X97622002Y-66430786D01*
X97621998Y-66430787D01*
X97614623Y-66432558D01*
X97462239Y-66511209D01*
X97430710Y-66538714D01*
X97387200Y-66561605D01*
X97387604Y-66562625D01*
X97335389Y-66583299D01*
X97327970Y-66585971D01*
X97274525Y-66603336D01*
X97267829Y-66607586D01*
X97267828Y-66607586D01*
X97267569Y-66607750D01*
X97246442Y-66618515D01*
X97246154Y-66618629D01*
X97246149Y-66618632D01*
X97238783Y-66621548D01*
X97232375Y-66626204D01*
X97232369Y-66626207D01*
X97193348Y-66654558D01*
X97186811Y-66659001D01*
X97139382Y-66689100D01*
X97133957Y-66694877D01*
X97133955Y-66694879D01*
X97133741Y-66695107D01*
X97115954Y-66710788D01*
X97115709Y-66710966D01*
X97115707Y-66710968D01*
X97109293Y-66715628D01*
X97104239Y-66721737D01*
X97104238Y-66721738D01*
X97073497Y-66758896D01*
X97068266Y-66764830D01*
X97035242Y-66799998D01*
X97035241Y-66800000D01*
X97029814Y-66805779D01*
X97025994Y-66812728D01*
X97025845Y-66812999D01*
X97012519Y-66832606D01*
X97012320Y-66832846D01*
X97012316Y-66832853D01*
X97007267Y-66838956D01*
X96995797Y-66863332D01*
X96983353Y-66889776D01*
X96979771Y-66896808D01*
X96955980Y-66940083D01*
X96905636Y-66990140D01*
X96831960Y-67004643D01*
X96777888Y-66998769D01*
X96771072Y-66998400D01*
X96548515Y-66998400D01*
X96533276Y-67002875D01*
X96532071Y-67004265D01*
X96530400Y-67011948D01*
X96530400Y-68384400D01*
X96510398Y-68452521D01*
X96456742Y-68499014D01*
X96404400Y-68510400D01*
X96148400Y-68510400D01*
X96080279Y-68490398D01*
X96033786Y-68436742D01*
X96022400Y-68384400D01*
X96022400Y-67016516D01*
X96017925Y-67001277D01*
X96016535Y-67000072D01*
X96008852Y-66998401D01*
X95781731Y-66998401D01*
X95774910Y-66998771D01*
X95724048Y-67004295D01*
X95708796Y-67007921D01*
X95588346Y-67053076D01*
X95572751Y-67061614D01*
X95470676Y-67138115D01*
X95465095Y-67143696D01*
X95402783Y-67177722D01*
X95331968Y-67172657D01*
X95275132Y-67130110D01*
X95250321Y-67063590D01*
X95250000Y-67054601D01*
X95250000Y-62901069D01*
X101638401Y-62901069D01*
X101638771Y-62907890D01*
X101644295Y-62958752D01*
X101647921Y-62974004D01*
X101693076Y-63094454D01*
X101701614Y-63110049D01*
X101778115Y-63212124D01*
X101790676Y-63224685D01*
X101892751Y-63301186D01*
X101908346Y-63309724D01*
X102028794Y-63354878D01*
X102044049Y-63358505D01*
X102094914Y-63364031D01*
X102101728Y-63364400D01*
X102324285Y-63364400D01*
X102339524Y-63359925D01*
X102340729Y-63358535D01*
X102342400Y-63350852D01*
X102342400Y-63346284D01*
X102850400Y-63346284D01*
X102854875Y-63361523D01*
X102856265Y-63362728D01*
X102863948Y-63364399D01*
X103091069Y-63364399D01*
X103097890Y-63364029D01*
X103148752Y-63358505D01*
X103164004Y-63354879D01*
X103252170Y-63321827D01*
X103322978Y-63316644D01*
X103340630Y-63321827D01*
X103428794Y-63354878D01*
X103444049Y-63358505D01*
X103494914Y-63364031D01*
X103501728Y-63364400D01*
X103724285Y-63364400D01*
X103739524Y-63359925D01*
X103740729Y-63358535D01*
X103742400Y-63350852D01*
X103742400Y-63346284D01*
X104250400Y-63346284D01*
X104254875Y-63361523D01*
X104256265Y-63362728D01*
X104263948Y-63364399D01*
X104491069Y-63364399D01*
X104497890Y-63364029D01*
X104548752Y-63358505D01*
X104564004Y-63354879D01*
X104652170Y-63321827D01*
X104722978Y-63316644D01*
X104740630Y-63321827D01*
X104828794Y-63354878D01*
X104844049Y-63358505D01*
X104894914Y-63364031D01*
X104901728Y-63364400D01*
X105124285Y-63364400D01*
X105139524Y-63359925D01*
X105140729Y-63358535D01*
X105142400Y-63350852D01*
X105142400Y-63346284D01*
X105650400Y-63346284D01*
X105654875Y-63361523D01*
X105656265Y-63362728D01*
X105663948Y-63364399D01*
X105891069Y-63364399D01*
X105897890Y-63364029D01*
X105948752Y-63358505D01*
X105964004Y-63354879D01*
X106084454Y-63309724D01*
X106100049Y-63301186D01*
X106202124Y-63224685D01*
X106214685Y-63212124D01*
X106291186Y-63110049D01*
X106299724Y-63094454D01*
X106344878Y-62974006D01*
X106348505Y-62958751D01*
X106354031Y-62907886D01*
X106354400Y-62901072D01*
X106354400Y-62678515D01*
X106349925Y-62663276D01*
X106348535Y-62662071D01*
X106340852Y-62660400D01*
X105668515Y-62660400D01*
X105653276Y-62664875D01*
X105652071Y-62666265D01*
X105650400Y-62673948D01*
X105650400Y-63346284D01*
X105142400Y-63346284D01*
X105142400Y-62678515D01*
X105137925Y-62663276D01*
X105136535Y-62662071D01*
X105128852Y-62660400D01*
X104268515Y-62660400D01*
X104253276Y-62664875D01*
X104252071Y-62666265D01*
X104250400Y-62673948D01*
X104250400Y-63346284D01*
X103742400Y-63346284D01*
X103742400Y-62678515D01*
X103737925Y-62663276D01*
X103736535Y-62662071D01*
X103728852Y-62660400D01*
X102868515Y-62660400D01*
X102853276Y-62664875D01*
X102852071Y-62666265D01*
X102850400Y-62673948D01*
X102850400Y-63346284D01*
X102342400Y-63346284D01*
X102342400Y-62678515D01*
X102337925Y-62663276D01*
X102336535Y-62662071D01*
X102328852Y-62660400D01*
X101656516Y-62660400D01*
X101641277Y-62664875D01*
X101640072Y-62666265D01*
X101638401Y-62673948D01*
X101638401Y-62901069D01*
X95250000Y-62901069D01*
X95250000Y-62134285D01*
X101638400Y-62134285D01*
X101642875Y-62149524D01*
X101644265Y-62150729D01*
X101651948Y-62152400D01*
X102324285Y-62152400D01*
X102339524Y-62147925D01*
X102340729Y-62146535D01*
X102342400Y-62138852D01*
X102342400Y-62134285D01*
X102850400Y-62134285D01*
X102854875Y-62149524D01*
X102856265Y-62150729D01*
X102863948Y-62152400D01*
X103724285Y-62152400D01*
X103739524Y-62147925D01*
X103740729Y-62146535D01*
X103742400Y-62138852D01*
X103742400Y-62134285D01*
X104250400Y-62134285D01*
X104254875Y-62149524D01*
X104256265Y-62150729D01*
X104263948Y-62152400D01*
X105124285Y-62152400D01*
X105139524Y-62147925D01*
X105140729Y-62146535D01*
X105142400Y-62138852D01*
X105142400Y-62134285D01*
X105650400Y-62134285D01*
X105654875Y-62149524D01*
X105656265Y-62150729D01*
X105663948Y-62152400D01*
X106336284Y-62152400D01*
X106351523Y-62147925D01*
X106352728Y-62146535D01*
X106354399Y-62138852D01*
X106354399Y-61911731D01*
X106354029Y-61904910D01*
X106348505Y-61854048D01*
X106344879Y-61838796D01*
X106311827Y-61750630D01*
X106306644Y-61679822D01*
X106311827Y-61662170D01*
X106344878Y-61574006D01*
X106348505Y-61558751D01*
X106354031Y-61507886D01*
X106354400Y-61501072D01*
X106354400Y-61278515D01*
X106349925Y-61263276D01*
X106348535Y-61262071D01*
X106340852Y-61260400D01*
X105668515Y-61260400D01*
X105653276Y-61264875D01*
X105652071Y-61266265D01*
X105650400Y-61273948D01*
X105650400Y-62134285D01*
X105142400Y-62134285D01*
X105142400Y-61278515D01*
X105137925Y-61263276D01*
X105136535Y-61262071D01*
X105128852Y-61260400D01*
X104268515Y-61260400D01*
X104253276Y-61264875D01*
X104252071Y-61266265D01*
X104250400Y-61273948D01*
X104250400Y-62134285D01*
X103742400Y-62134285D01*
X103742400Y-61278515D01*
X103737925Y-61263276D01*
X103736535Y-61262071D01*
X103728852Y-61260400D01*
X102868515Y-61260400D01*
X102853276Y-61264875D01*
X102852071Y-61266265D01*
X102850400Y-61273948D01*
X102850400Y-62134285D01*
X102342400Y-62134285D01*
X102342400Y-61278515D01*
X102337925Y-61263276D01*
X102336535Y-61262071D01*
X102328852Y-61260400D01*
X101656516Y-61260400D01*
X101641277Y-61264875D01*
X101640072Y-61266265D01*
X101638401Y-61273948D01*
X101638401Y-61501069D01*
X101638771Y-61507890D01*
X101644295Y-61558752D01*
X101647921Y-61574004D01*
X101680973Y-61662170D01*
X101686156Y-61732978D01*
X101680973Y-61750630D01*
X101647922Y-61838794D01*
X101644295Y-61854049D01*
X101638769Y-61904914D01*
X101638400Y-61911728D01*
X101638400Y-62134285D01*
X95250000Y-62134285D01*
X95250000Y-60734285D01*
X101638400Y-60734285D01*
X101642875Y-60749524D01*
X101644265Y-60750729D01*
X101651948Y-60752400D01*
X102324285Y-60752400D01*
X102339524Y-60747925D01*
X102340729Y-60746535D01*
X102342400Y-60738852D01*
X102342400Y-60734285D01*
X102850400Y-60734285D01*
X102854875Y-60749524D01*
X102856265Y-60750729D01*
X102863948Y-60752400D01*
X103724285Y-60752400D01*
X103739524Y-60747925D01*
X103740729Y-60746535D01*
X103742400Y-60738852D01*
X103742400Y-60734285D01*
X104250400Y-60734285D01*
X104254875Y-60749524D01*
X104256265Y-60750729D01*
X104263948Y-60752400D01*
X105124285Y-60752400D01*
X105139524Y-60747925D01*
X105140729Y-60746535D01*
X105142400Y-60738852D01*
X105142400Y-60734285D01*
X105650400Y-60734285D01*
X105654875Y-60749524D01*
X105656265Y-60750729D01*
X105663948Y-60752400D01*
X106336284Y-60752400D01*
X106351523Y-60747925D01*
X106352728Y-60746535D01*
X106354399Y-60738852D01*
X106354399Y-60511731D01*
X106354029Y-60504910D01*
X106348505Y-60454048D01*
X106344879Y-60438796D01*
X106311827Y-60350630D01*
X106306644Y-60279822D01*
X106311827Y-60262170D01*
X106344878Y-60174006D01*
X106348505Y-60158751D01*
X106354031Y-60107886D01*
X106354400Y-60101072D01*
X106354400Y-59878515D01*
X106349925Y-59863276D01*
X106348535Y-59862071D01*
X106340852Y-59860400D01*
X105668515Y-59860400D01*
X105653276Y-59864875D01*
X105652071Y-59866265D01*
X105650400Y-59873948D01*
X105650400Y-60734285D01*
X105142400Y-60734285D01*
X105142400Y-59878515D01*
X105137925Y-59863276D01*
X105136535Y-59862071D01*
X105128852Y-59860400D01*
X104268515Y-59860400D01*
X104253276Y-59864875D01*
X104252071Y-59866265D01*
X104250400Y-59873948D01*
X104250400Y-60734285D01*
X103742400Y-60734285D01*
X103742400Y-59878515D01*
X103737925Y-59863276D01*
X103736535Y-59862071D01*
X103728852Y-59860400D01*
X102868515Y-59860400D01*
X102853276Y-59864875D01*
X102852071Y-59866265D01*
X102850400Y-59873948D01*
X102850400Y-60734285D01*
X102342400Y-60734285D01*
X102342400Y-59878515D01*
X102337925Y-59863276D01*
X102336535Y-59862071D01*
X102328852Y-59860400D01*
X101656516Y-59860400D01*
X101641277Y-59864875D01*
X101640072Y-59866265D01*
X101638401Y-59873948D01*
X101638401Y-60101069D01*
X101638771Y-60107890D01*
X101644295Y-60158752D01*
X101647921Y-60174004D01*
X101680973Y-60262170D01*
X101686156Y-60332978D01*
X101680973Y-60350630D01*
X101647922Y-60438794D01*
X101644295Y-60454049D01*
X101638769Y-60504914D01*
X101638400Y-60511728D01*
X101638400Y-60734285D01*
X95250000Y-60734285D01*
X95250000Y-59334285D01*
X101638400Y-59334285D01*
X101642875Y-59349524D01*
X101644265Y-59350729D01*
X101651948Y-59352400D01*
X102324285Y-59352400D01*
X102339524Y-59347925D01*
X102340729Y-59346535D01*
X102342400Y-59338852D01*
X102342400Y-59334285D01*
X102850400Y-59334285D01*
X102854875Y-59349524D01*
X102856265Y-59350729D01*
X102863948Y-59352400D01*
X103724285Y-59352400D01*
X103739524Y-59347925D01*
X103740729Y-59346535D01*
X103742400Y-59338852D01*
X103742400Y-59334285D01*
X104250400Y-59334285D01*
X104254875Y-59349524D01*
X104256265Y-59350729D01*
X104263948Y-59352400D01*
X105124285Y-59352400D01*
X105139524Y-59347925D01*
X105140729Y-59346535D01*
X105142400Y-59338852D01*
X105142400Y-58666516D01*
X105137925Y-58651277D01*
X105136535Y-58650072D01*
X105128852Y-58648401D01*
X104901731Y-58648401D01*
X104894910Y-58648771D01*
X104844048Y-58654295D01*
X104828796Y-58657921D01*
X104740630Y-58690973D01*
X104669822Y-58696156D01*
X104652170Y-58690973D01*
X104564006Y-58657922D01*
X104548751Y-58654295D01*
X104497886Y-58648769D01*
X104491072Y-58648400D01*
X104268515Y-58648400D01*
X104253276Y-58652875D01*
X104252071Y-58654265D01*
X104250400Y-58661948D01*
X104250400Y-59334285D01*
X103742400Y-59334285D01*
X103742400Y-58666516D01*
X103737925Y-58651277D01*
X103736535Y-58650072D01*
X103728852Y-58648401D01*
X103501731Y-58648401D01*
X103494910Y-58648771D01*
X103444048Y-58654295D01*
X103428796Y-58657921D01*
X103340630Y-58690973D01*
X103269822Y-58696156D01*
X103252170Y-58690973D01*
X103164006Y-58657922D01*
X103148751Y-58654295D01*
X103097886Y-58648769D01*
X103091072Y-58648400D01*
X102868515Y-58648400D01*
X102853276Y-58652875D01*
X102852071Y-58654265D01*
X102850400Y-58661948D01*
X102850400Y-59334285D01*
X102342400Y-59334285D01*
X102342400Y-58666516D01*
X102337925Y-58651277D01*
X102336535Y-58650072D01*
X102328852Y-58648401D01*
X102101731Y-58648401D01*
X102094910Y-58648771D01*
X102044048Y-58654295D01*
X102028796Y-58657921D01*
X101908346Y-58703076D01*
X101892751Y-58711614D01*
X101790676Y-58788115D01*
X101778115Y-58800676D01*
X101701614Y-58902751D01*
X101693076Y-58918346D01*
X101647922Y-59038794D01*
X101644295Y-59054049D01*
X101638769Y-59104914D01*
X101638400Y-59111728D01*
X101638400Y-59334285D01*
X95250000Y-59334285D01*
X95250000Y-51958199D01*
X95270002Y-51890078D01*
X95323658Y-51843585D01*
X95393932Y-51833481D01*
X95458512Y-51862975D01*
X95465095Y-51869104D01*
X95470676Y-51874685D01*
X95572751Y-51951186D01*
X95588346Y-51959724D01*
X95708794Y-52004878D01*
X95724049Y-52008505D01*
X95774914Y-52014031D01*
X95781728Y-52014400D01*
X96004285Y-52014400D01*
X96019524Y-52009925D01*
X96020729Y-52008535D01*
X96022400Y-52000852D01*
X96022400Y-50628400D01*
X96042402Y-50560279D01*
X96096058Y-50513786D01*
X96148400Y-50502400D01*
X96404400Y-50502400D01*
X96472521Y-50522402D01*
G37*
G04 #@! TD.AperFunction*
G04 #@! TA.AperFunction,Conductor*
G36*
X122283933Y-67705837D02*
G01*
X122340769Y-67748384D01*
X122365580Y-67814904D01*
X122365901Y-67823882D01*
X122365901Y-68022634D01*
X122366164Y-68025495D01*
X122366165Y-68025520D01*
X122370060Y-68067909D01*
X122356375Y-68137574D01*
X122307198Y-68188781D01*
X122238144Y-68205272D01*
X122171135Y-68181812D01*
X122135117Y-68137839D01*
X122134013Y-68138508D01*
X122049174Y-67998423D01*
X122046884Y-67995502D01*
X122045880Y-67992983D01*
X122045242Y-67991930D01*
X122045418Y-67991824D01*
X122020592Y-67929553D01*
X122034128Y-67859859D01*
X122056943Y-67828661D01*
X122150806Y-67734798D01*
X122213118Y-67700772D01*
X122283933Y-67705837D01*
G37*
G04 #@! TD.AperFunction*
G04 #@! TA.AperFunction,Conductor*
G36*
X120170509Y-60933982D02*
G01*
X120177176Y-60941676D01*
X120180447Y-60947207D01*
X120298093Y-61064853D01*
X120304917Y-61068889D01*
X120304920Y-61068891D01*
X120412489Y-61132507D01*
X120441299Y-61149545D01*
X120448910Y-61151756D01*
X120448912Y-61151757D01*
X120501131Y-61166928D01*
X120601069Y-61195962D01*
X120607474Y-61196466D01*
X120607479Y-61196467D01*
X120635942Y-61198707D01*
X120635950Y-61198707D01*
X120638398Y-61198900D01*
X121376120Y-61198900D01*
X121444241Y-61218902D01*
X121490734Y-61272558D01*
X121500838Y-61342832D01*
X121471344Y-61407412D01*
X121465215Y-61413995D01*
X121412497Y-61466713D01*
X121400106Y-61477580D01*
X121375987Y-61496087D01*
X121338350Y-61545138D01*
X121328683Y-61557736D01*
X121328682Y-61557737D01*
X121298961Y-61596470D01*
X121241623Y-61638337D01*
X121236612Y-61639828D01*
X121232684Y-61640255D01*
X121225291Y-61643027D01*
X121225289Y-61643027D01*
X121162142Y-61666700D01*
X121096295Y-61691385D01*
X120979739Y-61778739D01*
X120892385Y-61895295D01*
X120841255Y-62031684D01*
X120834500Y-62093866D01*
X120834500Y-63890134D01*
X120841255Y-63952316D01*
X120892385Y-64088705D01*
X120979739Y-64205261D01*
X121096295Y-64292615D01*
X121104703Y-64295767D01*
X121156113Y-64315040D01*
X121212877Y-64357682D01*
X121237577Y-64424243D01*
X121222369Y-64493592D01*
X121200978Y-64522117D01*
X121082747Y-64640348D01*
X121074461Y-64647888D01*
X121067982Y-64652000D01*
X121062557Y-64657777D01*
X121021357Y-64701651D01*
X121018602Y-64704493D01*
X120998865Y-64724230D01*
X120996385Y-64727427D01*
X120988682Y-64736447D01*
X120958414Y-64768679D01*
X120954595Y-64775625D01*
X120954593Y-64775628D01*
X120948652Y-64786434D01*
X120937801Y-64802953D01*
X120925386Y-64818959D01*
X120922241Y-64826228D01*
X120922238Y-64826232D01*
X120907826Y-64859537D01*
X120902609Y-64870187D01*
X120881305Y-64908940D01*
X120879334Y-64916615D01*
X120879334Y-64916616D01*
X120876267Y-64928562D01*
X120869863Y-64947266D01*
X120861819Y-64965855D01*
X120860580Y-64973678D01*
X120860577Y-64973688D01*
X120854901Y-65009524D01*
X120852495Y-65021144D01*
X120843472Y-65056289D01*
X120841500Y-65063970D01*
X120841500Y-65084224D01*
X120839949Y-65103934D01*
X120836780Y-65123943D01*
X120837526Y-65131835D01*
X120840941Y-65167961D01*
X120841500Y-65179819D01*
X120841500Y-65398290D01*
X120821498Y-65466411D01*
X120804595Y-65487385D01*
X120738741Y-65553239D01*
X120676429Y-65587265D01*
X120605614Y-65582200D01*
X120560551Y-65553239D01*
X120470443Y-65463131D01*
X120458574Y-65453824D01*
X120324988Y-65372921D01*
X120311243Y-65366715D01*
X120161356Y-65319744D01*
X120148306Y-65317131D01*
X120093414Y-65312087D01*
X120081876Y-65315475D01*
X120080671Y-65316865D01*
X120079000Y-65324548D01*
X120079000Y-67258882D01*
X120082273Y-67270029D01*
X120082273Y-67341026D01*
X120050472Y-67394623D01*
X119758500Y-67686595D01*
X119696188Y-67720621D01*
X119669405Y-67723500D01*
X119395386Y-67723501D01*
X119377366Y-67723501D01*
X119374508Y-67723764D01*
X119374499Y-67723764D01*
X119338996Y-67727026D01*
X119303938Y-67730247D01*
X119297560Y-67732246D01*
X119297559Y-67732246D01*
X119192700Y-67765107D01*
X119121715Y-67766391D01*
X119061305Y-67729094D01*
X119030648Y-67665058D01*
X119039479Y-67594612D01*
X119065926Y-67555778D01*
X119331748Y-67289956D01*
X119394060Y-67255930D01*
X119458521Y-67258817D01*
X119488646Y-67268257D01*
X119501686Y-67270869D01*
X119556586Y-67275913D01*
X119568124Y-67272525D01*
X119569329Y-67271135D01*
X119571000Y-67263452D01*
X119571000Y-67098845D01*
X119591002Y-67030724D01*
X119595907Y-67024437D01*
X119595599Y-67024214D01*
X119600258Y-67017801D01*
X119605686Y-67012021D01*
X119615446Y-66994268D01*
X119626299Y-66977745D01*
X119633853Y-66968006D01*
X119638713Y-66961741D01*
X119656276Y-66921157D01*
X119661483Y-66910527D01*
X119682795Y-66871760D01*
X119684766Y-66864083D01*
X119684768Y-66864078D01*
X119687832Y-66852142D01*
X119694238Y-66833430D01*
X119698565Y-66823433D01*
X119702281Y-66814845D01*
X119703521Y-66807017D01*
X119703523Y-66807010D01*
X119709199Y-66771176D01*
X119711605Y-66759556D01*
X119720628Y-66724411D01*
X119720628Y-66724410D01*
X119722600Y-66716730D01*
X119722600Y-66696476D01*
X119724151Y-66676765D01*
X119726080Y-66664586D01*
X119727320Y-66656757D01*
X119723159Y-66612738D01*
X119722600Y-66600881D01*
X119722600Y-65158216D01*
X119732963Y-65108176D01*
X119748374Y-65072563D01*
X119753591Y-65061913D01*
X119774895Y-65023160D01*
X119779933Y-65003537D01*
X119786337Y-64984834D01*
X119791233Y-64973520D01*
X119791233Y-64973519D01*
X119794381Y-64966245D01*
X119795620Y-64958422D01*
X119795623Y-64958412D01*
X119801299Y-64922576D01*
X119803705Y-64910956D01*
X119812728Y-64875811D01*
X119812728Y-64875810D01*
X119814700Y-64868130D01*
X119814700Y-64847876D01*
X119816251Y-64828165D01*
X119818180Y-64815986D01*
X119819420Y-64808157D01*
X119815259Y-64764138D01*
X119814700Y-64752281D01*
X119814700Y-62015267D01*
X119815227Y-62004084D01*
X119816902Y-61996591D01*
X119814762Y-61928514D01*
X119814700Y-61924555D01*
X119814700Y-61896644D01*
X119814195Y-61892644D01*
X119813262Y-61880801D01*
X119812122Y-61844529D01*
X119811873Y-61836610D01*
X119806222Y-61817158D01*
X119802214Y-61797806D01*
X119800667Y-61785563D01*
X119799674Y-61777703D01*
X119793221Y-61761404D01*
X119783400Y-61736597D01*
X119779555Y-61725370D01*
X119778921Y-61723187D01*
X119767218Y-61682907D01*
X119756907Y-61665472D01*
X119748212Y-61647724D01*
X119740752Y-61628883D01*
X119714764Y-61593113D01*
X119708248Y-61583193D01*
X119689780Y-61551965D01*
X119689778Y-61551962D01*
X119685742Y-61545138D01*
X119671421Y-61530817D01*
X119658580Y-61515783D01*
X119652845Y-61507890D01*
X119646672Y-61499393D01*
X119640567Y-61494342D01*
X119640562Y-61494337D01*
X119612602Y-61471206D01*
X119603824Y-61463218D01*
X119537234Y-61396628D01*
X119503208Y-61334316D01*
X119508273Y-61263501D01*
X119550820Y-61206665D01*
X119591176Y-61186536D01*
X119710888Y-61151757D01*
X119710890Y-61151756D01*
X119718501Y-61149545D01*
X119747311Y-61132507D01*
X119854880Y-61068891D01*
X119854883Y-61068889D01*
X119861707Y-61064853D01*
X119979353Y-60947207D01*
X119981606Y-60943398D01*
X120037896Y-60902745D01*
X120108788Y-60898894D01*
X120170509Y-60933982D01*
G37*
G04 #@! TD.AperFunction*
G04 #@! TA.AperFunction,Conductor*
G36*
X103019827Y-65675702D02*
G01*
X103066320Y-65729358D01*
X103076424Y-65799632D01*
X103046930Y-65864212D01*
X103040817Y-65870779D01*
X102234136Y-66677459D01*
X102225862Y-66684988D01*
X102219382Y-66689100D01*
X102213957Y-66694877D01*
X102172757Y-66738751D01*
X102170002Y-66741593D01*
X102150265Y-66761330D01*
X102147785Y-66764527D01*
X102140082Y-66773547D01*
X102109814Y-66805779D01*
X102105995Y-66812725D01*
X102105993Y-66812728D01*
X102100052Y-66823534D01*
X102089201Y-66840053D01*
X102076786Y-66856059D01*
X102073641Y-66863328D01*
X102073638Y-66863332D01*
X102059226Y-66896637D01*
X102054009Y-66907287D01*
X102036243Y-66939605D01*
X101985897Y-66989664D01*
X101912221Y-67004167D01*
X101854534Y-66997900D01*
X100858266Y-66997900D01*
X100796084Y-67004655D01*
X100765629Y-67016072D01*
X100694823Y-67021255D01*
X100677176Y-67016074D01*
X100646716Y-67004655D01*
X100584534Y-66997900D01*
X100199694Y-66997900D01*
X100131573Y-66977898D01*
X100085080Y-66924242D01*
X100074976Y-66853968D01*
X100104470Y-66789388D01*
X100110599Y-66782805D01*
X101200799Y-65692605D01*
X101263111Y-65658579D01*
X101289894Y-65655700D01*
X102951706Y-65655700D01*
X103019827Y-65675702D01*
G37*
G04 #@! TD.AperFunction*
G04 #@! TA.AperFunction,Conductor*
G36*
X106310533Y-66336602D02*
G01*
X106357026Y-66390258D01*
X106367130Y-66460532D01*
X106337636Y-66525112D01*
X106277486Y-66562328D01*
X106277604Y-66562625D01*
X106275944Y-66563282D01*
X106275940Y-66563284D01*
X106270233Y-66565544D01*
X106225389Y-66583299D01*
X106217970Y-66585971D01*
X106164525Y-66603336D01*
X106157829Y-66607586D01*
X106157828Y-66607586D01*
X106157569Y-66607750D01*
X106136442Y-66618515D01*
X106136154Y-66618629D01*
X106136149Y-66618632D01*
X106128783Y-66621548D01*
X106122375Y-66626204D01*
X106122369Y-66626207D01*
X106083348Y-66654558D01*
X106076811Y-66659001D01*
X106029382Y-66689100D01*
X106023957Y-66694877D01*
X106023955Y-66694879D01*
X106023741Y-66695107D01*
X106005954Y-66710788D01*
X106005709Y-66710966D01*
X106005707Y-66710968D01*
X105999293Y-66715628D01*
X105994239Y-66721737D01*
X105994238Y-66721738D01*
X105963497Y-66758896D01*
X105958266Y-66764830D01*
X105925242Y-66799998D01*
X105925241Y-66800000D01*
X105919814Y-66805779D01*
X105915994Y-66812728D01*
X105915845Y-66812999D01*
X105902519Y-66832606D01*
X105897267Y-66838955D01*
X105894805Y-66836918D01*
X105852523Y-66873974D01*
X105782307Y-66884472D01*
X105717561Y-66855343D01*
X105691084Y-66823796D01*
X105674980Y-66796565D01*
X105674978Y-66796562D01*
X105670942Y-66789738D01*
X105656618Y-66775414D01*
X105643783Y-66760387D01*
X105631872Y-66743993D01*
X105625761Y-66738938D01*
X105622982Y-66735978D01*
X105596968Y-66694264D01*
X105571872Y-66627849D01*
X105571871Y-66627847D01*
X105569187Y-66620744D01*
X105495801Y-66513966D01*
X105473701Y-66446498D01*
X105491586Y-66377791D01*
X105543778Y-66329661D01*
X105599641Y-66316600D01*
X106242412Y-66316600D01*
X106310533Y-66336602D01*
G37*
G04 #@! TD.AperFunction*
G04 #@! TA.AperFunction,Conductor*
G36*
X115503412Y-61535770D02*
G01*
X115509995Y-61541899D01*
X115692595Y-61724499D01*
X115726621Y-61786811D01*
X115729500Y-61813594D01*
X115729501Y-62105634D01*
X115729764Y-62108492D01*
X115729764Y-62108501D01*
X115731700Y-62129570D01*
X115736247Y-62179062D01*
X115738246Y-62185440D01*
X115738246Y-62185441D01*
X115768271Y-62281249D01*
X115787528Y-62342699D01*
X115876361Y-62489381D01*
X115972239Y-62585259D01*
X116006265Y-62647571D01*
X116001200Y-62718386D01*
X115972239Y-62763449D01*
X115882131Y-62853557D01*
X115872824Y-62865426D01*
X115791921Y-62999012D01*
X115785715Y-63012757D01*
X115738744Y-63162644D01*
X115736131Y-63175694D01*
X115731087Y-63230586D01*
X115734475Y-63242124D01*
X115735865Y-63243329D01*
X115743548Y-63245000D01*
X116841000Y-63245000D01*
X116909121Y-63265002D01*
X116955614Y-63318658D01*
X116967000Y-63371000D01*
X116967000Y-64388884D01*
X116971475Y-64404123D01*
X116972865Y-64405328D01*
X116980548Y-64406999D01*
X117041705Y-64406999D01*
X117047454Y-64406736D01*
X117111315Y-64400868D01*
X117124351Y-64398257D01*
X117274243Y-64351285D01*
X117287988Y-64345079D01*
X117421574Y-64264176D01*
X117433443Y-64254869D01*
X117447227Y-64241085D01*
X117509539Y-64207059D01*
X117580354Y-64212124D01*
X117611881Y-64229350D01*
X117696295Y-64292615D01*
X117832684Y-64343745D01*
X117894866Y-64350500D01*
X118421700Y-64350500D01*
X118489821Y-64370502D01*
X118536314Y-64424158D01*
X118547700Y-64476500D01*
X118547700Y-64510084D01*
X118537337Y-64560124D01*
X118521926Y-64595737D01*
X118516709Y-64606387D01*
X118495405Y-64645140D01*
X118493434Y-64652815D01*
X118493434Y-64652816D01*
X118490367Y-64664762D01*
X118483963Y-64683466D01*
X118480364Y-64691784D01*
X118475919Y-64702055D01*
X118474680Y-64709878D01*
X118474677Y-64709888D01*
X118469001Y-64745724D01*
X118466595Y-64757344D01*
X118463685Y-64768679D01*
X118455600Y-64800170D01*
X118455600Y-64820424D01*
X118454049Y-64840134D01*
X118450880Y-64860143D01*
X118451626Y-64868035D01*
X118455041Y-64904161D01*
X118455600Y-64916019D01*
X118455600Y-65197567D01*
X118435598Y-65265688D01*
X118381942Y-65312181D01*
X118376310Y-65314282D01*
X118374071Y-65316865D01*
X118372400Y-65324548D01*
X118372400Y-66021885D01*
X118376875Y-66037124D01*
X118400700Y-66057769D01*
X118418698Y-66067597D01*
X118452721Y-66129910D01*
X118455600Y-66156690D01*
X118455600Y-66322105D01*
X118435598Y-66390226D01*
X118418695Y-66411200D01*
X118345700Y-66484195D01*
X118283388Y-66518221D01*
X118256605Y-66521100D01*
X117990400Y-66521100D01*
X117922279Y-66501098D01*
X117875786Y-66447442D01*
X117864400Y-66395100D01*
X117864400Y-65329115D01*
X117859925Y-65313876D01*
X117858535Y-65312671D01*
X117850852Y-65311000D01*
X117847962Y-65311000D01*
X117841447Y-65311337D01*
X117749343Y-65320894D01*
X117735944Y-65323788D01*
X117587293Y-65373381D01*
X117574114Y-65379555D01*
X117441227Y-65461788D01*
X117424089Y-65475371D01*
X117422559Y-65473441D01*
X117370520Y-65501903D01*
X117299701Y-65496887D01*
X117262783Y-65473201D01*
X117262028Y-65474157D01*
X117256282Y-65469619D01*
X117251102Y-65464448D01*
X117239605Y-65457361D01*
X117111731Y-65378538D01*
X117111729Y-65378537D01*
X117105501Y-65374698D01*
X116943157Y-65320851D01*
X116936320Y-65320151D01*
X116936318Y-65320150D01*
X116894999Y-65315917D01*
X116842132Y-65310500D01*
X116294668Y-65310500D01*
X116291422Y-65310837D01*
X116291418Y-65310837D01*
X116262130Y-65313876D01*
X116192381Y-65321113D01*
X116185840Y-65323295D01*
X116185841Y-65323295D01*
X116037076Y-65372927D01*
X116037074Y-65372928D01*
X116030132Y-65375244D01*
X116023908Y-65379096D01*
X116023907Y-65379096D01*
X115993018Y-65398211D01*
X115884687Y-65465248D01*
X115879514Y-65470430D01*
X115862589Y-65487385D01*
X115763848Y-65586298D01*
X115760008Y-65592528D01*
X115760007Y-65592529D01*
X115687861Y-65709572D01*
X115674098Y-65731899D01*
X115620251Y-65894243D01*
X115609900Y-65995268D01*
X115609900Y-66592732D01*
X115610237Y-66595978D01*
X115610237Y-66595982D01*
X115612121Y-66614139D01*
X115620513Y-66695019D01*
X115622695Y-66701560D01*
X115624150Y-66708296D01*
X115622349Y-66708685D01*
X115624604Y-66770465D01*
X115588424Y-66831551D01*
X115524962Y-66863380D01*
X115502493Y-66865400D01*
X115420900Y-66865400D01*
X115352779Y-66845398D01*
X115306286Y-66791742D01*
X115294900Y-66739400D01*
X115294900Y-65993266D01*
X115288145Y-65931084D01*
X115276728Y-65900629D01*
X115271545Y-65829823D01*
X115276726Y-65812176D01*
X115288145Y-65781716D01*
X115294900Y-65719534D01*
X115294900Y-64723266D01*
X115288145Y-64661084D01*
X115276728Y-64630629D01*
X115271545Y-64559823D01*
X115276726Y-64542176D01*
X115288145Y-64511716D01*
X115294900Y-64449534D01*
X115294900Y-63763294D01*
X115730709Y-63763294D01*
X115736132Y-63822315D01*
X115738743Y-63835351D01*
X115785715Y-63985243D01*
X115791921Y-63998988D01*
X115872824Y-64132574D01*
X115882131Y-64144443D01*
X115992557Y-64254869D01*
X116004426Y-64264176D01*
X116138012Y-64345079D01*
X116151757Y-64351285D01*
X116301644Y-64398256D01*
X116314694Y-64400869D01*
X116378521Y-64406734D01*
X116384309Y-64407000D01*
X116440885Y-64407000D01*
X116456124Y-64402525D01*
X116457329Y-64401135D01*
X116459000Y-64393452D01*
X116459000Y-63771115D01*
X116454525Y-63755876D01*
X116453135Y-63754671D01*
X116445452Y-63753000D01*
X115748116Y-63753000D01*
X115732877Y-63757475D01*
X115731672Y-63758865D01*
X115730709Y-63763294D01*
X115294900Y-63763294D01*
X115294900Y-63453266D01*
X115288145Y-63391084D01*
X115276728Y-63360629D01*
X115271545Y-63289823D01*
X115276726Y-63272176D01*
X115288145Y-63241716D01*
X115294900Y-63179534D01*
X115294900Y-62183266D01*
X115288145Y-62121084D01*
X115276728Y-62090629D01*
X115271545Y-62019823D01*
X115276726Y-62002176D01*
X115288145Y-61971716D01*
X115294900Y-61909534D01*
X115294900Y-61630994D01*
X115314902Y-61562873D01*
X115368558Y-61516380D01*
X115438832Y-61506276D01*
X115503412Y-61535770D01*
G37*
G04 #@! TD.AperFunction*
G04 #@! TA.AperFunction,Conductor*
G36*
X124828013Y-62142722D02*
G01*
X124967368Y-62194548D01*
X124974351Y-62195480D01*
X124974356Y-62195481D01*
X124997565Y-62198577D01*
X125003665Y-62199391D01*
X125068542Y-62228226D01*
X125107530Y-62287559D01*
X125113001Y-62324284D01*
X125113001Y-62345669D01*
X125113371Y-62352490D01*
X125118895Y-62403352D01*
X125122521Y-62418604D01*
X125167676Y-62539054D01*
X125176214Y-62554649D01*
X125252715Y-62656724D01*
X125265276Y-62669285D01*
X125367351Y-62745786D01*
X125382946Y-62754324D01*
X125503394Y-62799478D01*
X125518649Y-62803105D01*
X125569514Y-62808631D01*
X125576328Y-62809000D01*
X125712223Y-62809000D01*
X125780344Y-62829002D01*
X125815071Y-62862677D01*
X125825366Y-62867000D01*
X127063885Y-62867000D01*
X127079124Y-62862525D01*
X127080329Y-62861135D01*
X127082000Y-62853452D01*
X127082000Y-62418679D01*
X127102002Y-62350558D01*
X127155658Y-62304065D01*
X127225932Y-62293961D01*
X127284529Y-62318583D01*
X127396257Y-62404006D01*
X127396261Y-62404009D01*
X127401678Y-62408150D01*
X127517250Y-62462042D01*
X127570535Y-62508959D01*
X127590000Y-62576237D01*
X127590000Y-63136900D01*
X127569998Y-63205021D01*
X127516342Y-63251514D01*
X127464000Y-63262900D01*
X126257763Y-63262900D01*
X126246579Y-63262373D01*
X126239091Y-63260699D01*
X126231168Y-63260948D01*
X126171033Y-63262838D01*
X126167075Y-63262900D01*
X126139144Y-63262900D01*
X126135229Y-63263395D01*
X126135225Y-63263395D01*
X126135167Y-63263403D01*
X126135138Y-63263406D01*
X126123296Y-63264339D01*
X126079110Y-63265727D01*
X126061744Y-63270772D01*
X126059658Y-63271378D01*
X126040306Y-63275386D01*
X126033235Y-63276280D01*
X126020203Y-63277926D01*
X126012834Y-63280843D01*
X126012832Y-63280844D01*
X125979097Y-63294200D01*
X125967869Y-63298045D01*
X125925407Y-63310382D01*
X125918585Y-63314416D01*
X125918579Y-63314419D01*
X125907968Y-63320694D01*
X125890218Y-63329390D01*
X125878756Y-63333928D01*
X125878751Y-63333931D01*
X125871383Y-63336848D01*
X125835612Y-63362837D01*
X125825691Y-63369353D01*
X125819193Y-63373195D01*
X125805700Y-63379056D01*
X125796989Y-63386326D01*
X125794470Y-63387816D01*
X125794465Y-63387820D01*
X125787637Y-63391858D01*
X125773313Y-63406182D01*
X125758281Y-63419021D01*
X125741893Y-63430928D01*
X125720587Y-63456683D01*
X125713712Y-63464993D01*
X125705722Y-63473773D01*
X125048900Y-64130595D01*
X124986588Y-64164621D01*
X124959806Y-64167500D01*
X124905393Y-64167500D01*
X124784100Y-64167501D01*
X124715980Y-64147499D01*
X124669487Y-64093844D01*
X124658100Y-64041501D01*
X124658100Y-62260822D01*
X124678102Y-62192701D01*
X124731758Y-62146208D01*
X124802032Y-62136104D01*
X124828013Y-62142722D01*
G37*
G04 #@! TD.AperFunction*
G04 #@! TA.AperFunction,Conductor*
G36*
X126588121Y-62029502D02*
G01*
X126634614Y-62083158D01*
X126646000Y-62135500D01*
X126646000Y-62423000D01*
X126625998Y-62491121D01*
X126572342Y-62537614D01*
X126520000Y-62549000D01*
X126472000Y-62549000D01*
X126403879Y-62528998D01*
X126357386Y-62475342D01*
X126346000Y-62423000D01*
X126346000Y-62135500D01*
X126366002Y-62067379D01*
X126419658Y-62020886D01*
X126472000Y-62009500D01*
X126520000Y-62009500D01*
X126588121Y-62029502D01*
G37*
G04 #@! TD.AperFunction*
G04 #@! TA.AperFunction,Conductor*
G36*
X115503412Y-53827570D02*
G01*
X115509995Y-53833699D01*
X116407243Y-54730947D01*
X116414787Y-54739237D01*
X116418900Y-54745718D01*
X116424677Y-54751143D01*
X116468567Y-54792358D01*
X116471409Y-54795113D01*
X116491130Y-54814834D01*
X116494325Y-54817312D01*
X116503347Y-54825018D01*
X116535579Y-54855286D01*
X116542528Y-54859106D01*
X116553332Y-54865046D01*
X116569856Y-54875899D01*
X116585859Y-54888313D01*
X116626443Y-54905876D01*
X116637073Y-54911083D01*
X116675840Y-54932395D01*
X116683517Y-54934366D01*
X116683522Y-54934368D01*
X116695458Y-54937432D01*
X116714166Y-54943837D01*
X116732755Y-54951881D01*
X116740583Y-54953121D01*
X116740590Y-54953123D01*
X116776424Y-54958799D01*
X116788044Y-54961205D01*
X116823189Y-54970228D01*
X116830870Y-54972200D01*
X116851124Y-54972200D01*
X116870834Y-54973751D01*
X116890843Y-54976920D01*
X116898735Y-54976174D01*
X116934861Y-54972759D01*
X116946719Y-54972200D01*
X117212400Y-54972200D01*
X117280521Y-54992202D01*
X117327014Y-55045858D01*
X117338400Y-55098200D01*
X117338400Y-55424285D01*
X117342875Y-55439524D01*
X117344265Y-55440729D01*
X117351948Y-55442400D01*
X119236284Y-55442400D01*
X119251523Y-55437925D01*
X119252728Y-55436535D01*
X119254399Y-55428852D01*
X119254399Y-55229793D01*
X119274401Y-55161672D01*
X119328057Y-55115179D01*
X119398331Y-55105075D01*
X119462911Y-55134569D01*
X119469478Y-55140683D01*
X120417459Y-56088664D01*
X120424988Y-56096938D01*
X120429100Y-56103418D01*
X120434877Y-56108843D01*
X120478751Y-56150043D01*
X120481593Y-56152798D01*
X120501330Y-56172535D01*
X120504527Y-56175015D01*
X120513547Y-56182718D01*
X120545779Y-56212986D01*
X120552725Y-56216805D01*
X120552728Y-56216807D01*
X120563534Y-56222748D01*
X120580053Y-56233599D01*
X120596059Y-56246014D01*
X120603328Y-56249159D01*
X120603332Y-56249162D01*
X120636637Y-56263574D01*
X120647296Y-56268796D01*
X120672599Y-56282706D01*
X120722659Y-56333050D01*
X120737900Y-56393121D01*
X120737900Y-56594534D01*
X120744655Y-56656716D01*
X120795785Y-56793105D01*
X120883139Y-56909661D01*
X120999695Y-56997015D01*
X121136084Y-57048145D01*
X121198266Y-57054900D01*
X121815600Y-57054900D01*
X121883721Y-57074902D01*
X121930214Y-57128558D01*
X121941600Y-57180900D01*
X121941600Y-57310600D01*
X121921598Y-57378721D01*
X121867942Y-57425214D01*
X121815600Y-57436600D01*
X121716467Y-57436600D01*
X121705284Y-57436073D01*
X121697791Y-57434398D01*
X121689865Y-57434647D01*
X121689864Y-57434647D01*
X121629701Y-57436538D01*
X121625743Y-57436600D01*
X121597844Y-57436600D01*
X121593854Y-57437104D01*
X121582020Y-57438036D01*
X121537811Y-57439426D01*
X121530197Y-57441638D01*
X121530192Y-57441639D01*
X121518359Y-57445077D01*
X121498996Y-57449088D01*
X121478903Y-57451626D01*
X121471536Y-57454543D01*
X121471531Y-57454544D01*
X121437792Y-57467902D01*
X121426565Y-57471746D01*
X121384107Y-57484082D01*
X121377281Y-57488119D01*
X121366672Y-57494393D01*
X121348924Y-57503088D01*
X121330083Y-57510548D01*
X121323667Y-57515210D01*
X121323666Y-57515210D01*
X121303257Y-57530038D01*
X121236389Y-57553896D01*
X121167238Y-57537815D01*
X121140102Y-57517196D01*
X121060348Y-57437442D01*
X121052813Y-57429162D01*
X121048700Y-57422682D01*
X120999048Y-57376056D01*
X120996207Y-57373302D01*
X120976470Y-57353565D01*
X120973273Y-57351085D01*
X120964251Y-57343380D01*
X120949497Y-57329525D01*
X120932021Y-57313114D01*
X120925075Y-57309295D01*
X120925072Y-57309293D01*
X120914266Y-57303352D01*
X120897747Y-57292501D01*
X120897283Y-57292141D01*
X120881741Y-57280086D01*
X120874472Y-57276941D01*
X120874468Y-57276938D01*
X120841163Y-57262526D01*
X120830513Y-57257309D01*
X120791760Y-57236005D01*
X120772137Y-57230967D01*
X120753434Y-57224563D01*
X120742120Y-57219667D01*
X120742119Y-57219667D01*
X120734845Y-57216519D01*
X120727022Y-57215280D01*
X120727012Y-57215277D01*
X120691176Y-57209601D01*
X120679556Y-57207195D01*
X120644411Y-57198172D01*
X120644410Y-57198172D01*
X120636730Y-57196200D01*
X120616476Y-57196200D01*
X120596765Y-57194649D01*
X120595080Y-57194382D01*
X120576757Y-57191480D01*
X120547486Y-57194247D01*
X120532739Y-57195641D01*
X120520881Y-57196200D01*
X119104717Y-57196200D01*
X119036596Y-57176198D01*
X118990103Y-57122542D01*
X118979999Y-57052268D01*
X119009493Y-56987688D01*
X119029152Y-56969373D01*
X119102128Y-56914681D01*
X119114685Y-56902124D01*
X119191186Y-56800049D01*
X119199724Y-56784454D01*
X119244878Y-56664006D01*
X119248505Y-56648751D01*
X119254031Y-56597886D01*
X119254400Y-56591072D01*
X119254400Y-55968515D01*
X119249925Y-55953276D01*
X119248535Y-55952071D01*
X119240852Y-55950400D01*
X117356516Y-55950400D01*
X117341277Y-55954875D01*
X117340072Y-55956265D01*
X117338401Y-55963948D01*
X117338401Y-56591069D01*
X117338771Y-56597890D01*
X117344295Y-56648752D01*
X117347921Y-56664004D01*
X117393076Y-56784454D01*
X117401614Y-56800049D01*
X117478115Y-56902124D01*
X117490672Y-56914681D01*
X117563648Y-56969373D01*
X117606163Y-57026233D01*
X117611189Y-57097051D01*
X117577129Y-57159345D01*
X117514798Y-57193335D01*
X117488083Y-57196200D01*
X116636167Y-57196200D01*
X116624984Y-57195673D01*
X116617491Y-57193998D01*
X116609565Y-57194247D01*
X116609564Y-57194247D01*
X116549414Y-57196138D01*
X116545455Y-57196200D01*
X116517544Y-57196200D01*
X116513610Y-57196697D01*
X116513609Y-57196697D01*
X116513544Y-57196705D01*
X116501707Y-57197638D01*
X116469890Y-57198638D01*
X116465429Y-57198778D01*
X116457510Y-57199027D01*
X116439854Y-57204156D01*
X116438058Y-57204678D01*
X116418706Y-57208686D01*
X116411635Y-57209580D01*
X116398603Y-57211226D01*
X116391234Y-57214143D01*
X116391232Y-57214144D01*
X116357497Y-57227500D01*
X116346269Y-57231345D01*
X116303807Y-57243682D01*
X116296985Y-57247716D01*
X116296979Y-57247719D01*
X116286368Y-57253994D01*
X116268618Y-57262690D01*
X116257156Y-57267228D01*
X116257151Y-57267231D01*
X116249783Y-57270148D01*
X116232370Y-57282799D01*
X116214025Y-57296127D01*
X116204107Y-57302643D01*
X116192863Y-57309293D01*
X116166037Y-57325158D01*
X116151713Y-57339482D01*
X116136681Y-57352321D01*
X116120293Y-57364228D01*
X116104814Y-57382939D01*
X116092112Y-57398293D01*
X116084122Y-57407073D01*
X115949685Y-57541510D01*
X115887373Y-57575536D01*
X115816558Y-57570471D01*
X115759722Y-57527924D01*
X115739296Y-57481632D01*
X115738926Y-57481752D01*
X115737743Y-57478112D01*
X115736379Y-57473913D01*
X115731206Y-57450769D01*
X115731168Y-57450465D01*
X115731167Y-57450460D01*
X115730174Y-57442603D01*
X115727258Y-57435238D01*
X115727257Y-57435234D01*
X115709501Y-57390389D01*
X115706829Y-57382970D01*
X115689464Y-57329525D01*
X115685214Y-57322828D01*
X115685050Y-57322569D01*
X115674285Y-57301442D01*
X115674171Y-57301154D01*
X115674168Y-57301149D01*
X115671252Y-57293783D01*
X115666596Y-57287375D01*
X115666593Y-57287369D01*
X115638242Y-57248348D01*
X115633792Y-57241801D01*
X115603700Y-57194382D01*
X115597693Y-57188741D01*
X115582012Y-57170954D01*
X115581834Y-57170709D01*
X115581832Y-57170707D01*
X115577172Y-57164293D01*
X115571062Y-57159238D01*
X115533904Y-57128497D01*
X115527970Y-57123266D01*
X115492802Y-57090242D01*
X115492799Y-57090240D01*
X115487021Y-57084814D01*
X115479797Y-57080842D01*
X115460194Y-57067519D01*
X115459954Y-57067320D01*
X115459947Y-57067316D01*
X115453844Y-57062267D01*
X115414300Y-57043659D01*
X115403024Y-57038353D01*
X115395980Y-57034764D01*
X115353194Y-57011242D01*
X115303137Y-56960899D01*
X115288633Y-56887221D01*
X115294531Y-56832931D01*
X115294900Y-56829534D01*
X115294900Y-55833266D01*
X115288145Y-55771084D01*
X115276728Y-55740629D01*
X115271545Y-55669823D01*
X115276726Y-55652176D01*
X115288145Y-55621716D01*
X115294900Y-55559534D01*
X115294900Y-54563266D01*
X115288145Y-54501084D01*
X115276728Y-54470629D01*
X115271545Y-54399823D01*
X115276726Y-54382176D01*
X115288145Y-54351716D01*
X115294900Y-54289534D01*
X115294900Y-53922794D01*
X115314902Y-53854673D01*
X115368558Y-53808180D01*
X115438832Y-53798076D01*
X115503412Y-53827570D01*
G37*
G04 #@! TD.AperFunction*
G04 #@! TA.AperFunction,Conductor*
G36*
X125801411Y-50058502D02*
G01*
X125847904Y-50112158D01*
X125858008Y-50182432D01*
X125828514Y-50247012D01*
X125822385Y-50253595D01*
X125705861Y-50370119D01*
X125617028Y-50516801D01*
X125614757Y-50524048D01*
X125614756Y-50524050D01*
X125610409Y-50537921D01*
X125565747Y-50680438D01*
X125559000Y-50753865D01*
X125559001Y-51417134D01*
X125559264Y-51419992D01*
X125559264Y-51420001D01*
X125561818Y-51447799D01*
X125565747Y-51490562D01*
X125567746Y-51496940D01*
X125567746Y-51496941D01*
X125610197Y-51632400D01*
X125617028Y-51654199D01*
X125705861Y-51800881D01*
X125713151Y-51808171D01*
X125714099Y-51809907D01*
X125715919Y-51812228D01*
X125715532Y-51812531D01*
X125747177Y-51870483D01*
X125742112Y-51941298D01*
X125713229Y-51986284D01*
X125673136Y-52026447D01*
X125584151Y-52170808D01*
X125581846Y-52177756D01*
X125581846Y-52177757D01*
X125535194Y-52318408D01*
X125530762Y-52331769D01*
X125520500Y-52431928D01*
X125520500Y-53041072D01*
X125531022Y-53142482D01*
X125584692Y-53303349D01*
X125673929Y-53447555D01*
X125793947Y-53567364D01*
X125800177Y-53571204D01*
X125800178Y-53571205D01*
X125831514Y-53590520D01*
X125938308Y-53656349D01*
X125948139Y-53659610D01*
X125949853Y-53660797D01*
X125951890Y-53661747D01*
X125951727Y-53662096D01*
X126006498Y-53700039D01*
X126033736Y-53765603D01*
X126021203Y-53835485D01*
X126008032Y-53856429D01*
X125923289Y-53965680D01*
X125916565Y-53976440D01*
X125836268Y-54139625D01*
X125831845Y-54151519D01*
X125816749Y-54209470D01*
X125817183Y-54223564D01*
X125825364Y-54227000D01*
X128845229Y-54227000D01*
X128858760Y-54223027D01*
X128859637Y-54216925D01*
X128803690Y-54064864D01*
X128798123Y-54053451D01*
X128702292Y-53898892D01*
X128694545Y-53888832D01*
X128615762Y-53805521D01*
X128583491Y-53742283D01*
X128590531Y-53671636D01*
X128634648Y-53616011D01*
X128641008Y-53611804D01*
X128708514Y-53570030D01*
X128719915Y-53560994D01*
X128829298Y-53451420D01*
X128838310Y-53440009D01*
X128919553Y-53308209D01*
X128925697Y-53295032D01*
X128974579Y-53147657D01*
X128977445Y-53134290D01*
X128986672Y-53044230D01*
X128987000Y-53037815D01*
X128987000Y-53008615D01*
X128982525Y-52993376D01*
X128981135Y-52992171D01*
X128973452Y-52990500D01*
X127913500Y-52990500D01*
X127845379Y-52970498D01*
X127798886Y-52916842D01*
X127787500Y-52864500D01*
X127787500Y-52608500D01*
X127807502Y-52540379D01*
X127861158Y-52493886D01*
X127913500Y-52482500D01*
X128968885Y-52482500D01*
X128984124Y-52478025D01*
X128985329Y-52476635D01*
X128987000Y-52468952D01*
X128987000Y-52435234D01*
X128986663Y-52428718D01*
X128977196Y-52337479D01*
X128974303Y-52324083D01*
X128925170Y-52176813D01*
X128918996Y-52163634D01*
X128837530Y-52031986D01*
X128823947Y-52014848D01*
X128826401Y-52012903D01*
X128799064Y-51962949D01*
X128804062Y-51892129D01*
X128833064Y-51846956D01*
X128879139Y-51800881D01*
X128967972Y-51654199D01*
X128974804Y-51632400D01*
X128991017Y-51580664D01*
X129019253Y-51490562D01*
X129026000Y-51417135D01*
X129025999Y-50753866D01*
X129025734Y-50750974D01*
X129019864Y-50687092D01*
X129019253Y-50680438D01*
X128992309Y-50594461D01*
X128970244Y-50524050D01*
X128970243Y-50524048D01*
X128967972Y-50516801D01*
X128879139Y-50370119D01*
X128762615Y-50253595D01*
X128728589Y-50191283D01*
X128733654Y-50120468D01*
X128776201Y-50063632D01*
X128842721Y-50038821D01*
X128851710Y-50038500D01*
X132030633Y-50038500D01*
X132050018Y-50040000D01*
X132064852Y-50042310D01*
X132064855Y-50042310D01*
X132073724Y-50043691D01*
X132083659Y-50042392D01*
X132084746Y-50042250D01*
X132113431Y-50041793D01*
X132186741Y-50049013D01*
X132216212Y-50051916D01*
X132240432Y-50056733D01*
X132359546Y-50092866D01*
X132382355Y-50102315D01*
X132492124Y-50160987D01*
X132512657Y-50174706D01*
X132532342Y-50190861D01*
X132572309Y-50249538D01*
X132574209Y-50320509D01*
X132537437Y-50381241D01*
X132473668Y-50412451D01*
X132403149Y-50404231D01*
X132392477Y-50399093D01*
X132351127Y-50376735D01*
X132351120Y-50376732D01*
X132345701Y-50373802D01*
X132156768Y-50315318D01*
X132150643Y-50314674D01*
X132150642Y-50314674D01*
X131966204Y-50295289D01*
X131966202Y-50295289D01*
X131960075Y-50294645D01*
X131885674Y-50301416D01*
X131769251Y-50312011D01*
X131769248Y-50312012D01*
X131763112Y-50312570D01*
X131757206Y-50314308D01*
X131757202Y-50314309D01*
X131656466Y-50343957D01*
X131573381Y-50368410D01*
X131567923Y-50371263D01*
X131567919Y-50371265D01*
X131514690Y-50399093D01*
X131398110Y-50460040D01*
X131243975Y-50583968D01*
X131116846Y-50735474D01*
X131113879Y-50740872D01*
X131113875Y-50740877D01*
X131045694Y-50864899D01*
X131021567Y-50908787D01*
X131019706Y-50914654D01*
X131019705Y-50914656D01*
X130993774Y-50996400D01*
X130961765Y-51097306D01*
X130939719Y-51293851D01*
X130942245Y-51323931D01*
X130953742Y-51460848D01*
X130956268Y-51490934D01*
X130957992Y-51496946D01*
X131004947Y-51660696D01*
X131010783Y-51681050D01*
X131013602Y-51686535D01*
X131078356Y-51812531D01*
X131101187Y-51856956D01*
X131224035Y-52011953D01*
X131319510Y-52093208D01*
X131323963Y-52096998D01*
X131362876Y-52156381D01*
X131368300Y-52192952D01*
X131368300Y-52368720D01*
X131348298Y-52436841D01*
X131331395Y-52457815D01*
X129042456Y-54746754D01*
X128980144Y-54780780D01*
X128909329Y-54775715D01*
X128869459Y-54744585D01*
X128846636Y-54735000D01*
X127608115Y-54735000D01*
X127592876Y-54739475D01*
X127591671Y-54740865D01*
X127590000Y-54748548D01*
X127590000Y-55023802D01*
X127569998Y-55091923D01*
X127516342Y-55138416D01*
X127504189Y-55143221D01*
X127490796Y-55147728D01*
X127490794Y-55147729D01*
X127484325Y-55149906D01*
X127329095Y-55243177D01*
X127324138Y-55247865D01*
X127324135Y-55247867D01*
X127294573Y-55275823D01*
X127231335Y-55308095D01*
X127160689Y-55301055D01*
X127105063Y-55256938D01*
X127082000Y-55184275D01*
X127082000Y-54753115D01*
X127077525Y-54737876D01*
X127076135Y-54736671D01*
X127068452Y-54735000D01*
X125826771Y-54735000D01*
X125811532Y-54739475D01*
X125802834Y-54749513D01*
X125743108Y-54787897D01*
X125707609Y-54793001D01*
X125576331Y-54793001D01*
X125569510Y-54793371D01*
X125518648Y-54798895D01*
X125503396Y-54802521D01*
X125382946Y-54847676D01*
X125367351Y-54856214D01*
X125265276Y-54932715D01*
X125252715Y-54945276D01*
X125176214Y-55047351D01*
X125167676Y-55062946D01*
X125122522Y-55183394D01*
X125118895Y-55198649D01*
X125113369Y-55249514D01*
X125113000Y-55256328D01*
X125113000Y-55282885D01*
X125117475Y-55298124D01*
X125118865Y-55299329D01*
X125126548Y-55301000D01*
X126327885Y-55301000D01*
X126343124Y-55296525D01*
X126344329Y-55295135D01*
X126346000Y-55287452D01*
X126346000Y-55179000D01*
X126366002Y-55110879D01*
X126419658Y-55064386D01*
X126472000Y-55053000D01*
X126520000Y-55053000D01*
X126588121Y-55073002D01*
X126634614Y-55126658D01*
X126646000Y-55179000D01*
X126646000Y-55466500D01*
X126625998Y-55534621D01*
X126572342Y-55581114D01*
X126520000Y-55592500D01*
X125572866Y-55592500D01*
X125569469Y-55592869D01*
X125518535Y-55598402D01*
X125518534Y-55598402D01*
X125510684Y-55599255D01*
X125503295Y-55602025D01*
X125503291Y-55602026D01*
X125387508Y-55645432D01*
X125374295Y-55650385D01*
X125257739Y-55737739D01*
X125170385Y-55854295D01*
X125170096Y-55854079D01*
X125123935Y-55900139D01*
X125118582Y-55902353D01*
X125100186Y-55923583D01*
X125084196Y-55952868D01*
X125038172Y-55979441D01*
X125038963Y-55981350D01*
X124962204Y-56013145D01*
X124896727Y-56040266D01*
X124861505Y-56067293D01*
X124825530Y-56094898D01*
X124821014Y-56098363D01*
X124774587Y-56133987D01*
X124769561Y-56140537D01*
X124769560Y-56140538D01*
X124756083Y-56158102D01*
X124745216Y-56170493D01*
X124568285Y-56347425D01*
X124505974Y-56381449D01*
X124435158Y-56376385D01*
X124378322Y-56333838D01*
X124353863Y-56271334D01*
X124349506Y-56229343D01*
X124346612Y-56215944D01*
X124297019Y-56067293D01*
X124290845Y-56054114D01*
X124208612Y-55921227D01*
X124195029Y-55904089D01*
X124196959Y-55902559D01*
X124168497Y-55850520D01*
X124173513Y-55779701D01*
X124197199Y-55742783D01*
X124196243Y-55742028D01*
X124200781Y-55736282D01*
X124205952Y-55731102D01*
X124287750Y-55598402D01*
X124291862Y-55591731D01*
X124291863Y-55591729D01*
X124295702Y-55585501D01*
X124349549Y-55423157D01*
X124351000Y-55409002D01*
X124359572Y-55325330D01*
X124359900Y-55322132D01*
X124359900Y-55012995D01*
X124379902Y-54944874D01*
X124396805Y-54923900D01*
X124569853Y-54750852D01*
X124578139Y-54743312D01*
X124584618Y-54739200D01*
X124631244Y-54689548D01*
X124633998Y-54686707D01*
X124653735Y-54666970D01*
X124656215Y-54663773D01*
X124663920Y-54654751D01*
X124688759Y-54628300D01*
X124694186Y-54622521D01*
X124698005Y-54615575D01*
X124698007Y-54615572D01*
X124703948Y-54604766D01*
X124714799Y-54588247D01*
X124722358Y-54578501D01*
X124727214Y-54572241D01*
X124730359Y-54564972D01*
X124730362Y-54564968D01*
X124744774Y-54531663D01*
X124749991Y-54521013D01*
X124771295Y-54482260D01*
X124776333Y-54462637D01*
X124782737Y-54443934D01*
X124787633Y-54432620D01*
X124787633Y-54432619D01*
X124790781Y-54425345D01*
X124792020Y-54417522D01*
X124792023Y-54417512D01*
X124797699Y-54381676D01*
X124800105Y-54370056D01*
X124809128Y-54334911D01*
X124809128Y-54334910D01*
X124811100Y-54327230D01*
X124811100Y-54306976D01*
X124812651Y-54287265D01*
X124814580Y-54275086D01*
X124815820Y-54267257D01*
X124811659Y-54223238D01*
X124811100Y-54211381D01*
X124811100Y-52433067D01*
X124811627Y-52421884D01*
X124813302Y-52414391D01*
X124812740Y-52396496D01*
X124811162Y-52346314D01*
X124811100Y-52342355D01*
X124811100Y-52314444D01*
X124810595Y-52310444D01*
X124809662Y-52298601D01*
X124809443Y-52291610D01*
X124808273Y-52254410D01*
X124802622Y-52234958D01*
X124798614Y-52215606D01*
X124797067Y-52203363D01*
X124796074Y-52195503D01*
X124789048Y-52177757D01*
X124779800Y-52154397D01*
X124775955Y-52143170D01*
X124772431Y-52131042D01*
X124763618Y-52100707D01*
X124759584Y-52093885D01*
X124759581Y-52093879D01*
X124753306Y-52083268D01*
X124744610Y-52065518D01*
X124740072Y-52054056D01*
X124740069Y-52054051D01*
X124737152Y-52046683D01*
X124720139Y-52023266D01*
X124711173Y-52010925D01*
X124704657Y-52001007D01*
X124686175Y-51969757D01*
X124682142Y-51962937D01*
X124667818Y-51948613D01*
X124654976Y-51933578D01*
X124643072Y-51917193D01*
X124609006Y-51889011D01*
X124600227Y-51881022D01*
X124364285Y-51645080D01*
X124330259Y-51582768D01*
X124333146Y-51518306D01*
X124351152Y-51460848D01*
X124351152Y-51460846D01*
X124353153Y-51454462D01*
X124359900Y-51381035D01*
X124359899Y-50867766D01*
X124353153Y-50794338D01*
X124341373Y-50756749D01*
X124304144Y-50637950D01*
X124304143Y-50637948D01*
X124301872Y-50630701D01*
X124213039Y-50484019D01*
X124091781Y-50362761D01*
X123945099Y-50273928D01*
X123946285Y-50271970D01*
X123901007Y-50233077D01*
X123880712Y-50165043D01*
X123900421Y-50096836D01*
X123953876Y-50050113D01*
X124006711Y-50038500D01*
X125733290Y-50038500D01*
X125801411Y-50058502D01*
G37*
G04 #@! TD.AperFunction*
G04 #@! TA.AperFunction,Conductor*
G36*
X122814210Y-50058502D02*
G01*
X122860703Y-50112158D01*
X122870807Y-50182432D01*
X122841313Y-50247012D01*
X122806922Y-50272642D01*
X122807701Y-50273928D01*
X122661019Y-50362761D01*
X122539761Y-50484019D01*
X122523843Y-50510304D01*
X122516539Y-50522364D01*
X122464141Y-50570270D01*
X122394162Y-50582243D01*
X122364533Y-50575074D01*
X122256716Y-50534655D01*
X122194534Y-50527900D01*
X121198266Y-50527900D01*
X121136084Y-50534655D01*
X120999695Y-50585785D01*
X120883139Y-50673139D01*
X120795785Y-50789695D01*
X120744655Y-50926084D01*
X120737900Y-50988266D01*
X120737900Y-51188236D01*
X120717898Y-51256357D01*
X120667022Y-51299560D01*
X120667508Y-51300381D01*
X120662724Y-51303210D01*
X120662721Y-51303212D01*
X120660684Y-51304417D01*
X120660682Y-51304418D01*
X120650072Y-51310693D01*
X120632324Y-51319388D01*
X120613483Y-51326848D01*
X120607067Y-51331510D01*
X120607066Y-51331510D01*
X120577713Y-51352836D01*
X120567793Y-51359352D01*
X120536565Y-51377820D01*
X120536562Y-51377822D01*
X120529738Y-51381858D01*
X120515417Y-51396179D01*
X120500384Y-51409019D01*
X120483993Y-51420928D01*
X120478943Y-51427032D01*
X120478938Y-51427037D01*
X120455807Y-51454998D01*
X120447817Y-51463779D01*
X119515099Y-52396496D01*
X119452787Y-52430521D01*
X119426004Y-52433400D01*
X119380400Y-52433400D01*
X119312279Y-52413398D01*
X119265786Y-52359742D01*
X119254400Y-52307400D01*
X119254400Y-52158515D01*
X119249925Y-52143276D01*
X119248535Y-52142071D01*
X119240852Y-52140400D01*
X118168400Y-52140400D01*
X118100279Y-52120398D01*
X118053786Y-52066742D01*
X118042400Y-52014400D01*
X118042400Y-51614285D01*
X118550400Y-51614285D01*
X118554875Y-51629524D01*
X118556265Y-51630729D01*
X118563948Y-51632400D01*
X119236284Y-51632400D01*
X119251523Y-51627925D01*
X119252728Y-51626535D01*
X119254399Y-51618852D01*
X119254399Y-50991731D01*
X119254029Y-50984910D01*
X119248505Y-50934048D01*
X119244879Y-50918796D01*
X119199724Y-50798346D01*
X119191186Y-50782751D01*
X119114685Y-50680676D01*
X119102124Y-50668115D01*
X119000049Y-50591614D01*
X118984454Y-50583076D01*
X118864006Y-50537922D01*
X118848751Y-50534295D01*
X118797886Y-50528769D01*
X118791072Y-50528400D01*
X118568515Y-50528400D01*
X118553276Y-50532875D01*
X118552071Y-50534265D01*
X118550400Y-50541948D01*
X118550400Y-51614285D01*
X118042400Y-51614285D01*
X118042400Y-50546516D01*
X118037925Y-50531277D01*
X118036535Y-50530072D01*
X118028852Y-50528401D01*
X117801731Y-50528401D01*
X117794910Y-50528771D01*
X117744048Y-50534295D01*
X117728796Y-50537921D01*
X117608346Y-50583076D01*
X117584883Y-50595922D01*
X117583262Y-50592961D01*
X117532103Y-50612081D01*
X117462719Y-50597036D01*
X117415886Y-50552711D01*
X117350607Y-50447221D01*
X117341576Y-50435826D01*
X117230971Y-50325414D01*
X117219560Y-50316402D01*
X117147137Y-50271760D01*
X117099644Y-50218988D01*
X117088220Y-50148916D01*
X117116494Y-50083792D01*
X117175488Y-50044293D01*
X117213253Y-50038500D01*
X122746089Y-50038500D01*
X122814210Y-50058502D01*
G37*
G04 #@! TD.AperFunction*
G04 #@! TA.AperFunction,Conductor*
G36*
X115891643Y-50058502D02*
G01*
X115938136Y-50112158D01*
X115948240Y-50182432D01*
X115918746Y-50247012D01*
X115889825Y-50271644D01*
X115816227Y-50317188D01*
X115804826Y-50326224D01*
X115694414Y-50436829D01*
X115685402Y-50448240D01*
X115603396Y-50581280D01*
X115597249Y-50594461D01*
X115547909Y-50743214D01*
X115545042Y-50756590D01*
X115535728Y-50847497D01*
X115535471Y-50852526D01*
X115539875Y-50867524D01*
X115541265Y-50868729D01*
X115548948Y-50870400D01*
X116646400Y-50870400D01*
X116714521Y-50890402D01*
X116761014Y-50944058D01*
X116772400Y-50996400D01*
X116772400Y-51252400D01*
X116752398Y-51320521D01*
X116698742Y-51367014D01*
X116646400Y-51378400D01*
X115553516Y-51378400D01*
X115548943Y-51379743D01*
X115477946Y-51379745D01*
X115424347Y-51347943D01*
X115072805Y-50996400D01*
X114440552Y-50364147D01*
X114433012Y-50355861D01*
X114428900Y-50349382D01*
X114403377Y-50325414D01*
X114379249Y-50302757D01*
X114376407Y-50300002D01*
X114356670Y-50280265D01*
X114353473Y-50277785D01*
X114344451Y-50270080D01*
X114329830Y-50256350D01*
X114293865Y-50195137D01*
X114296702Y-50124198D01*
X114337443Y-50066053D01*
X114403151Y-50039165D01*
X114416083Y-50038500D01*
X115823522Y-50038500D01*
X115891643Y-50058502D01*
G37*
G04 #@! TD.AperFunction*
M02*
